<svg xmlns="http://www.w3.org/2000/svg" version="1.1" xmlns:xlink="http://www.w3.org/1999/xlink" width="1500" height="1500" viewBox="0 0 1500 1500"><rect width="1500" height="1500" fill="#ffffff"></rect><g transform="matrix(0.6666666666666666,0,0,0.6666666666666666,249.39393939393938,435.99032258064517)"><svg viewBox="0 0 396 248" data-background-color="#ffffff" preserveAspectRatio="xMidYMid meet" height="939" width="1500" xmlns="http://www.w3.org/2000/svg" xmlns:xlink="http://www.w3.org/1999/xlink"><g id="tight-bounds" transform="matrix(1,0,0,1,0.2400000000000091,0.4000000000000057)"><svg viewBox="0 0 395.52 247.2" height="247.2" width="395.52"><g><svg></svg></g><g><svg viewBox="0 0 395.52 247.2" height="247.2" width="395.52"><g transform="matrix(1,0,0,1,75.54432000000001,56.1102461059543)"><svg viewBox="0 0 244.43135999999996 134.97950778809138" height="134.97950778809138" width="244.43135999999996"><g><svg viewBox="0 0 244.43135999999996 134.97950778809138" height="134.97950778809138" width="244.43135999999996"><g><svg viewBox="0 0 244.43135999999996 134.97950778809138" height="134.97950778809138" width="244.43135999999996"><g transform="matrix(1,0,0,1,0,100.83734874205251)"><svg viewBox="0 0 244.43135999999996 34.14215904603887" height="34.14215904603887" width="244.43135999999996"><g id="textblocktransform"><svg viewBox="0 0 244.43135999999996 34.14215904603887" height="34.14215904603887" width="244.43135999999996" id="textblock"><g><svg viewBox="0 0 244.43135999999996 27.399740502215653" height="27.399740502215653" width="244.43135999999996"><g transform="matrix(1,0,0,1,0,0)"><svg width="244.43135999999996" viewBox="2 -33.65 304.63 34.15" height="27.399740502215653" data-palette-color="#93540a"><path d="M28.9-7.8L28.9-7.8 30.8-5.3Q27.65-2.4 24.7-1.07 21.75 0.25 17.9 0.25L17.9 0.25Q13.15 0.25 9.55-1.93 5.95-4.1 3.98-7.93 2-11.75 2-16.75L2-16.75Q2-19.9 3-22.9 4-25.9 6-28.3 8-30.7 11.08-32.13 14.15-33.55 18.25-33.55L18.25-33.55Q21.4-33.55 24.5-32.88 27.6-32.2 30.35-30.9L30.35-30.9Q29.85-28.75 29.38-26.48 28.9-24.2 28.5-22L28.5-22 25.6-22 24.6-27.8Q22.65-29.25 20.03-29.83 17.4-30.4 14.6-30.4L14.6-30.4Q11.55-28.75 10.3-25.4 9.05-22.05 9.05-17.9L9.05-17.9Q9.05-13.45 10.4-10.23 11.75-7 14.1-5.28 16.45-3.55 19.4-3.55L19.4-3.55Q22.15-3.55 24.23-4.6 26.3-5.65 28.9-7.8ZM48.8-33L48.8-33 49.5-31.05 45.25-30Q46.15-26.55 46.95-23.8 47.75-21.05 48.55-18.63 49.35-16.2 50.27-13.73 51.2-11.25 52.35-8.3L52.35-8.3 50.15 0.45 47.5 0.45Q46.05-4.25 44.8-8.15 43.55-12.05 42.35-15.55 41.15-19.05 39.92-22.58 38.7-26.1 37.3-30L37.3-30 32.9-31.05 33.6-33Q35.35-32.85 36.9-32.83 38.45-32.8 40.9-32.8L40.9-32.8Q43.3-32.8 45.17-32.85 47.05-32.9 48.8-33ZM57.6-33L60.4-33 59.45-24.7Q57.75-20.2 56.22-16.28 54.7-12.35 53.22-8.35 51.75-4.35 50.15 0.45L50.15 0.45 48.75-4.6Q50.7-9.6 52.17-14.03 53.65-18.45 54.95-23 56.25-27.55 57.6-33L57.6-33ZM57.6-33L60.4-33Q61.75-28.85 62.85-25.73 63.95-22.6 65-19.95 66.05-17.3 67.2-14.53 68.35-11.75 69.8-8.3L69.8-8.3 67.05-1.3 65.45 0.4Q63.9-3.85 62.67-7.05 61.45-10.25 60.42-12.9 59.4-15.55 58.35-18.13 57.3-20.7 56-23.65L56-23.65 57.6-33ZM81.55-33L81.55-33 82.2-31.05 77.9-30Q76.6-26.5 75.47-23.18 74.35-19.85 73.22-16.3 72.1-12.75 70.87-8.68 69.65-4.6 68.1 0.4L68.1 0.4 65.45 0.4 66.7-6.25Q68.65-11.35 70.4-17.57 72.15-23.8 73-30L73-30 68.35-31.05 69.05-33Q70.75-32.95 72.42-32.88 74.1-32.8 75.75-32.8L75.75-32.8Q77.5-32.8 78.85-32.88 80.2-32.95 81.55-33ZM97.55-33.65L97.55-33.65Q100.3-33.65 103.15-33.02 106-32.4 108.05-31.35L108.05-31.35Q107.55-28.9 107.15-27.08 106.75-25.25 106.35-23.3L106.35-23.3 103.15-23.3 102.65-28.75Q101.95-29.75 100.47-30.28 99-30.8 97.4-30.8L97.4-30.8Q95.45-30.8 93.9-29.7 92.35-28.6 92.35-26.5L92.35-26.5Q92.35-24.85 93.57-23.73 94.8-22.6 96.72-21.68 98.65-20.75 100.8-19.75 102.95-18.75 104.87-17.38 106.8-16 108.02-13.95 109.25-11.9 109.25-8.85L109.25-8.85Q109.25-5.55 107.4-3.48 105.55-1.4 102.62-0.45 99.7 0.5 96.4 0.5L96.4 0.5Q93.35 0.5 90.4-0.25 87.45-1 85.3-2.35L85.3-2.35Q85.85-4.6 86.22-6.38 86.6-8.15 86.95-10.6L86.95-10.6 90.2-10.6 90.9-4.1Q92.05-3.3 93.37-2.85 94.7-2.4 96.15-2.4L96.15-2.4Q98.5-2.4 100.27-3.58 102.05-4.75 102.05-7.45L102.05-7.45Q102.05-9.55 100.87-10.85 99.7-12.15 97.85-13.05 96-13.95 93.92-14.8 91.85-15.65 90-16.8 88.15-17.95 86.97-19.75 85.8-21.55 85.8-24.4L85.8-24.4Q85.8-27.5 87.42-29.55 89.05-31.6 91.72-32.63 94.4-33.65 97.55-33.65ZM150.89-7.8L150.89-7.8 152.79-5.3Q149.64-2.4 146.69-1.07 143.74 0.25 139.89 0.25L139.89 0.25Q135.14 0.25 131.54-1.93 127.94-4.1 125.97-7.93 123.99-11.75 123.99-16.75L123.99-16.75Q123.99-19.9 124.99-22.9 125.99-25.9 127.99-28.3 129.99-30.7 133.07-32.13 136.14-33.55 140.24-33.55L140.24-33.55Q143.39-33.55 146.49-32.88 149.59-32.2 152.34-30.9L152.34-30.9Q151.84-28.75 151.37-26.48 150.89-24.2 150.49-22L150.49-22 147.59-22 146.59-27.8Q144.64-29.25 142.02-29.83 139.39-30.4 136.59-30.4L136.59-30.4Q133.54-28.75 132.29-25.4 131.04-22.05 131.04-17.9L131.04-17.9Q131.04-13.45 132.39-10.23 133.74-7 136.09-5.28 138.44-3.55 141.39-3.55L141.39-3.55Q144.14-3.55 146.22-4.6 148.29-5.65 150.89-7.8ZM172.39-33.5L172.39-33.5Q176.24-33.5 179.19-32.1 182.14-30.7 184.16-28.33 186.19-25.95 187.24-22.98 188.29-20 188.29-16.85L188.29-16.85Q188.29-13.4 187.34-10.3 186.39-7.2 184.46-4.75 182.54-2.3 179.56-0.9 176.59 0.5 172.59 0.5L172.59 0.5Q168.59 0.5 165.56-0.93 162.54-2.35 160.54-4.78 158.54-7.2 157.54-10.33 156.54-13.45 156.54-16.9L156.54-16.9Q156.54-21.4 158.26-25.18 159.99-28.95 163.51-31.23 167.04-33.5 172.39-33.5ZM181.39-14.8L181.39-14.8Q181.39-17.9 180.66-20.75 179.94-23.6 178.64-25.83 177.34-28.05 175.51-29.35 173.69-30.65 171.44-30.65L171.44-30.65Q168.64-30.65 166.86-28.93 165.09-27.2 164.26-24.45 163.44-21.7 163.44-18.5L163.44-18.5Q163.44-15.4 164.16-12.5 164.89-9.6 166.24-7.3 167.59-5 169.44-3.68 171.29-2.35 173.49-2.35L173.49-2.35Q176.34-2.35 178.06-4.13 179.79-5.9 180.59-8.75 181.39-11.6 181.39-14.8ZM211.19-18.55L211.19-18.55 211.19-14.35Q210.09-14.55 209.24-14.68 208.39-14.8 207.39-14.88 206.39-14.95 204.79-14.95L204.79-14.95Q203.59-14.95 202.36-14.9 201.14-14.85 199.44-14.6L199.44-14.6 199.44-18.3Q201.14-18.15 202.36-18.07 203.59-18 204.79-18L204.79-18Q206.39-18 207.39-18.07 208.39-18.15 209.24-18.28 210.09-18.4 211.19-18.55ZM209.89-22.7L212.64-22.7Q212.59-21.2 212.51-19.6 212.44-18 212.44-16.4L212.44-16.4Q212.44-14.85 212.51-13.25 212.59-11.65 212.64-10.2L212.64-10.2 209.89-10.2 208.24-15.4 208.24-17.55 209.89-22.7ZM192.19 0L191.54-1.9 195.79-2.95Q195.89-6.5 195.96-9.95 196.04-13.4 196.04-16.75L196.04-16.75Q196.04-20.15 195.99-23.55 195.94-26.95 195.79-29.85L195.79-29.85 191.29-31.05 191.94-33Q193.24-32.95 194.24-32.9 195.24-32.85 196.44-32.83 197.64-32.8 199.39-32.8L199.39-32.8Q200.89-32.8 203.41-32.8 205.94-32.8 208.76-32.83 211.59-32.85 214.14-32.9 216.69-32.95 218.24-33L218.24-33Q218.14-30.4 218.01-27.95 217.89-25.5 217.84-23.1L217.84-23.1 214.64-23.1 213.74-28.4Q211.99-29.15 209.44-29.48 206.89-29.8 203.34-29.35L203.34-29.35Q203.34-26.1 203.31-23.38 203.29-20.65 203.26-18.78 203.24-16.9 203.24-16.25L203.24-16.25Q203.24-12.95 203.24-10.73 203.24-8.5 203.26-6.8 203.29-5.1 203.34-3.4L203.34-3.4 209.39-1.85 208.74 0Q207.09-0.05 205.79-0.08 204.49-0.1 203.04-0.13 201.59-0.15 199.39-0.15L199.39-0.15Q197.39-0.15 195.74-0.13 194.09-0.1 192.19 0L192.19 0ZM240.13-18.55L240.13-18.55 240.13-14.35Q239.03-14.55 238.18-14.68 237.33-14.8 236.33-14.88 235.33-14.95 233.73-14.95L233.73-14.95Q232.53-14.95 231.31-14.9 230.08-14.85 228.38-14.6L228.38-14.6 228.38-18.3Q230.08-18.15 231.31-18.07 232.53-18 233.73-18L233.73-18Q235.33-18 236.33-18.07 237.33-18.15 238.18-18.28 239.03-18.4 240.13-18.55ZM238.83-22.7L241.58-22.7Q241.53-21.2 241.46-19.6 241.38-18 241.38-16.4L241.38-16.4Q241.38-14.85 241.46-13.25 241.53-11.65 241.58-10.2L241.58-10.2 238.83-10.2 237.18-15.4 237.18-17.55 238.83-22.7ZM221.13 0L220.48-1.9 224.73-2.95Q224.83-6.5 224.91-9.95 224.98-13.4 224.98-16.75L224.98-16.75Q224.98-20.15 224.93-23.55 224.88-26.95 224.73-29.85L224.73-29.85 220.23-31.05 220.88-33Q222.18-32.95 223.18-32.9 224.18-32.85 225.38-32.83 226.58-32.8 228.33-32.8L228.33-32.8Q229.83-32.8 232.36-32.8 234.88-32.8 237.71-32.83 240.53-32.85 243.08-32.9 245.63-32.95 247.18-33L247.18-33Q247.08-30.4 246.96-27.95 246.83-25.5 246.78-23.1L246.78-23.1 243.58-23.1 242.68-28.4Q240.93-29.15 238.38-29.48 235.83-29.8 232.28-29.35L232.28-29.35Q232.28-26.1 232.26-23.38 232.23-20.65 232.21-18.78 232.18-16.9 232.18-16.25L232.18-16.25Q232.18-12.95 232.18-10.73 232.18-8.5 232.21-6.8 232.23-5.1 232.28-3.4L232.28-3.4 238.33-1.85 237.68 0Q236.03-0.05 234.73-0.08 233.43-0.1 231.98-0.13 230.53-0.15 228.33-0.15L228.33-0.15Q226.33-0.15 224.68-0.13 223.03-0.1 221.13 0L221.13 0ZM268.98-18.55L268.98-18.55 268.98-14.35Q267.83-14.55 267.03-14.68 266.23-14.8 265.31-14.88 264.38-14.95 262.83-14.95L262.83-14.95Q261.63-14.95 260.25-14.9 258.88-14.85 257.23-14.6L257.23-14.6 257.23-18.3Q258.98-18.15 260.25-18.07 261.53-18 262.73-18L262.73-18Q264.28-18 265.23-18.07 266.18-18.15 267-18.28 267.83-18.4 268.98-18.55ZM267.68-22.7L270.43-22.7Q270.38-21.2 270.31-19.73 270.23-18.25 270.23-16.65L270.23-16.65Q270.23-15 270.31-13.13 270.38-11.25 270.43-10.2L270.43-10.2 267.68-10.2 266.03-15.4 266.03-17.55 267.68-22.7ZM276.53 0L276.53 0Q272.13-0.15 257.58-0.15L257.58-0.15Q255.83-0.15 254.18-0.13 252.53-0.1 249.78 0L249.78 0 249.18-1.9 253.58-2.95Q253.68-7 253.75-10.93 253.83-14.85 253.83-18.8L253.83-18.8Q253.83-21.95 253.75-24.6 253.68-27.25 253.58-29.85L253.58-29.85 249.18-31.05 249.83-33Q252.33-32.9 254.33-32.85 256.33-32.8 257.78-32.8L257.78-32.8Q259.23-32.8 261.28-32.8 263.33-32.8 265.58-32.83 267.83-32.85 269.93-32.88 272.03-32.9 273.66-32.93 275.28-32.95 276.03-33L276.03-33Q275.88-29.85 275.78-27.43 275.68-25 275.63-23.1L275.63-23.1 272.43-23.1 271.53-28.35Q270.28-29 268.53-29.3 266.78-29.6 264.83-29.6L264.83-29.6Q263.93-29.6 263-29.53 262.08-29.45 261.13-29.35L261.13-29.35Q261.08-24.85 261.06-20.85 261.03-16.85 261.03-13.15L261.03-13.15Q261.03-10.85 261.06-8.45 261.08-6.05 261.13-3.45L261.13-3.45Q261.98-3.35 262.88-3.28 263.78-3.2 264.68-3.2L264.68-3.2Q266.68-3.2 268.58-3.5 270.48-3.8 271.73-4.45L271.73-4.45 272.88-10.5 276.08-10.5Q276.08-8.2 276.2-5.38 276.33-2.55 276.53 0ZM299.08-18.55L299.08-18.55 299.08-14.35Q297.93-14.55 297.13-14.68 296.33-14.8 295.4-14.88 294.48-14.95 292.93-14.95L292.93-14.95Q291.73-14.95 290.35-14.9 288.98-14.85 287.33-14.6L287.33-14.6 287.33-18.3Q289.08-18.15 290.35-18.07 291.63-18 292.83-18L292.83-18Q294.38-18 295.33-18.07 296.28-18.15 297.1-18.28 297.93-18.4 299.08-18.55ZM297.78-22.7L300.53-22.7Q300.48-21.2 300.4-19.73 300.33-18.25 300.33-16.65L300.33-16.65Q300.33-15 300.4-13.13 300.48-11.25 300.53-10.2L300.53-10.2 297.78-10.2 296.13-15.4 296.13-17.55 297.78-22.7ZM306.63 0L306.63 0Q302.23-0.15 287.68-0.15L287.68-0.15Q285.93-0.15 284.28-0.13 282.63-0.1 279.88 0L279.88 0 279.28-1.9 283.68-2.95Q283.78-7 283.85-10.93 283.93-14.85 283.93-18.8L283.93-18.8Q283.93-21.95 283.85-24.6 283.78-27.25 283.68-29.85L283.68-29.85 279.28-31.05 279.93-33Q282.43-32.9 284.43-32.85 286.43-32.8 287.88-32.8L287.88-32.8Q289.33-32.8 291.38-32.8 293.43-32.8 295.68-32.83 297.93-32.85 300.03-32.88 302.13-32.9 303.75-32.93 305.38-32.95 306.13-33L306.13-33Q305.98-29.85 305.88-27.43 305.78-25 305.73-23.1L305.73-23.1 302.53-23.1 301.63-28.35Q300.38-29 298.63-29.3 296.88-29.6 294.93-29.6L294.93-29.6Q294.03-29.6 293.1-29.53 292.18-29.45 291.23-29.35L291.23-29.35Q291.18-24.85 291.15-20.85 291.13-16.85 291.13-13.15L291.13-13.15Q291.13-10.85 291.15-8.45 291.18-6.05 291.23-3.45L291.23-3.45Q292.08-3.35 292.98-3.28 293.88-3.2 294.78-3.2L294.78-3.2Q296.78-3.2 298.68-3.5 300.58-3.8 301.83-4.45L301.83-4.45 302.98-10.5 306.18-10.5Q306.18-8.2 306.3-5.38 306.43-2.55 306.63 0Z" opacity="1" transform="matrix(1,0,0,1,0,0)" fill="#93540a" class="wordmark-text-0" data-fill-palette-color="primary" id="text-0"></path></svg></g></svg></g><g transform="matrix(1,0,0,1,0,33.86816164101671)"><svg viewBox="0 0 244.43135999999996 0.2739974050221565" height="0.2739974050221565" width="244.43135999999996"><g transform="matrix(1,0,0,1,0,0)"><svg width="244.43135999999996" viewBox="2 -42.05 48306.87 54.15" height="0.2739974050221565" data-palette-color="#034620"><path d="M16.95 0.6Q12.45 0.6 9.05-1.3 5.65-3.2 3.83-6.68 2-10.15 2-14.85L2-14.85Q2-19.85 4.25-23.88 6.5-27.9 10.48-30.18 14.45-32.45 19.45-32.45L19.45-32.45Q21.3-32.45 23.23-32.18 25.15-31.9 26.48-31.63 27.8-31.35 28.15-31.25L28.15-31.25 28.35-30.95Q28.25-30.65 28.03-29.5 27.8-28.35 27.53-26.5 27.25-24.65 27.1-22.6L27.1-22.6 24.7-22.4Q24.75-22.65 24.8-23.33 24.85-24 24.85-24.85L24.85-24.85Q24.85-29.5 17.5-29.5L17.5-29.5Q14.2-29.5 11.7-27.9 9.2-26.3 7.85-23.38 6.5-20.45 6.5-16.5L6.5-16.5Q6.5-12.15 7.93-8.85 9.35-5.55 11.95-3.73 14.55-1.9 17.95-1.9L17.95-1.9Q21.35-1.9 23.43-3.83 25.5-5.75 26.45-9.8L26.45-9.8 28.85-10Q28.7-9.25 28.2-6.68 27.7-4.1 27.5-1.85L27.5-1.85 27.2-1.4Q27.2-1.35 25.68-0.83 24.15-0.3 21.88 0.15 19.6 0.6 16.95 0.6L16.95 0.6ZM1004.87 0.6Q1002.02 0.6 999.82-0.8 997.62-2.2 996.39-4.73 995.17-7.25 995.17-10.5L995.17-10.5Q995.17-14 996.69-16.93 998.22-19.85 1000.87-21.53 1003.52-23.2 1006.77-23.2L1006.77-23.2Q1009.57-23.2 1011.79-21.8 1014.02-20.4 1015.24-17.88 1016.47-15.35 1016.47-12.1L1016.47-12.1Q1016.47-8.6 1014.94-5.68 1013.42-2.75 1010.77-1.07 1008.12 0.6 1004.87 0.6L1004.87 0.6ZM1006.27-1.85Q1009.07-1.85 1010.72-4.13 1012.37-6.4 1012.37-10.3L1012.37-10.3Q1012.37-13.25 1011.47-15.58 1010.57-17.9 1008.94-19.2 1007.32-20.5 1005.27-20.5L1005.27-20.5Q1002.47-20.5 1000.82-18.2 999.17-15.9 999.17-11.95L999.17-11.95Q999.17-9 1000.07-6.7 1000.97-4.4 1002.57-3.13 1004.17-1.85 1006.27-1.85L1006.27-1.85ZM1989.64 0.85Q1988.94-1.55 1986.76-8.58 1984.59-15.6 1983.74-18.3L1983.74-18.3Q1982.89-20.75 1980.44-20.8L1980.44-20.8 1980.34-21 1980.64-22.65 1984.64-22.6Q1986.54-22.6 1988.26-22.75 1989.99-22.9 1990.49-22.95L1990.49-22.95 1990.59-22.7 1990.29-21.15Q1988.64-21.1 1988.04-20.83 1987.44-20.55 1987.44-19.85L1987.44-19.85Q1987.44-18.9 1989.19-12.68 1990.94-6.45 1991.59-4.25L1991.59-4.25 1991.79-4.25 1994.74-11.65Q1996.34-15.5 1997.04-17.5L1997.04-17.5Q1996.49-19.2 1995.71-20 1994.94-20.8 1993.49-20.8L1993.49-20.8 1993.39-21 1993.69-22.65 1997.69-22.6Q1999.54-22.6 2001.29-22.7 2003.04-22.8 2003.54-22.85L2003.54-22.85 2003.64-22.6 2003.34-21.05Q2001.64-21 2001.06-20.75 2000.49-20.5 2000.49-19.85L2000.49-19.85Q2000.49-18.95 2002.24-12.73 2003.99-6.5 2004.64-4.25L2004.64-4.25 2004.84-4.25Q2007.04-9.9 2007.74-11.5L2007.74-11.5Q2008.99-14.6 2009.81-16.8 2010.64-19 2010.64-19.6L2010.64-19.6Q2010.64-20.3 2010.16-20.58 2009.69-20.85 2008.59-20.85L2008.59-20.85 2006.74-20.85 2006.54-21.15 2006.79-22.7Q2007.24-22.7 2008.59-22.65 2009.94-22.6 2011.74-22.6L2011.74-22.6 2015.84-22.65 2015.49-20.8Q2014.49-20.7 2013.89-19.98 2013.29-19.25 2012.39-17.05L2012.39-17.05 2005.39 0 2002.69 0.85 1998.19-13.9 1997.89-13.9 1992.39 0 1989.64 0.85ZM2989.56 0.6Q2986.71 0.6 2984.51-0.8 2982.31-2.2 2981.08-4.73 2979.86-7.25 2979.86-10.5L2979.86-10.5Q2979.86-14 2981.38-16.93 2982.91-19.85 2985.56-21.53 2988.21-23.2 2991.46-23.2L2991.46-23.2Q2994.26-23.2 2996.48-21.8 2998.71-20.4 2999.93-17.88 3001.16-15.35 3001.16-12.1L3001.16-12.1Q3001.16-8.6 2999.63-5.68 2998.11-2.75 2995.46-1.07 2992.81 0.6 2989.56 0.6L2989.56 0.6ZM2990.96-1.85Q2993.76-1.85 2995.41-4.13 2997.06-6.4 2997.06-10.3L2997.06-10.3Q2997.06-13.25 2996.16-15.58 2995.26-17.9 2993.63-19.2 2992.01-20.5 2989.96-20.5L2989.96-20.5Q2987.16-20.5 2985.51-18.2 2983.86-15.9 2983.86-11.95L2983.86-11.95Q2983.86-9 2984.76-6.7 2985.66-4.4 2987.26-3.13 2988.86-1.85 2990.96-1.85L2990.96-1.85ZM3968.98-1.8Q3970.48-1.95 3970.98-2.78 3971.48-3.6 3971.48-5.95L3971.48-5.95 3971.48-16.95Q3971.48-18.6 3971.03-19.3 3970.58-20 3969.58-20L3969.58-20Q3969.18-20 3968.9-19.95 3968.63-19.9 3968.53-19.85L3968.53-19.85 3968.28-20.2 3968.43-21.75Q3970.33-22.1 3972.45-22.6 3974.58-23.1 3975.18-23.25L3975.18-23.25 3975.53-22.95Q3975.43-22.5 3975.23-20.88 3975.03-19.25 3975.08-17.8L3975.08-17.8 3975.28-17.65Q3976.78-20 3978.8-21.5 3980.83-23 3982.33-23L3982.33-23Q3983.03-23 3983.4-22.93 3983.78-22.85 3983.88-22.8L3983.88-22.8 3984.03-22.6Q3983.93-21.9 3983.6-19.63 3983.28-17.35 3983.23-15.45L3983.23-15.45 3981.28-15.3Q3981.28-17.35 3981-18.03 3980.73-18.7 3979.93-18.7L3979.93-18.7Q3978.83-18.7 3977.58-17.78 3976.33-16.85 3975.28-15.3L3975.28-15.3Q3975.23-13.85 3975.08-10.5 3974.93-7.15 3974.88-5.1L3974.88-5.1Q3974.88-3.4 3975.38-2.8 3975.88-2.2 3977.28-2.2L3977.28-2.2Q3977.93-2.2 3978.58-2.25 3979.23-2.3 3979.48-2.3L3979.48-2.3 3979.53-2.1 3979.08 0.1Q3978.58 0.1 3977.08 0.05 3975.58 0 3973.98 0L3973.98 0Q3972.13 0 3970.63 0.08 3969.13 0.15 3968.73 0.2L3968.73 0.2 3968.98-1.8ZM4949.95-1.75Q4951.25-1.95 4951.8-2.48 4952.35-3 4952.47-3.85 4952.6-4.7 4952.6-6.75L4952.6-6.75 4952.6-31.3Q4952.6-34 4950.75-34L4950.75-34Q4950.4-34 4950-33.93 4949.6-33.85 4949.5-33.8L4949.5-33.8Q4949.5-34.1 4949.6-34.7L4949.6-34.7 4949.7-35.65Q4951.85-35.95 4954.15-36.45 4956.45-36.95 4957.1-37.1L4957.1-37.1 4957.4-36.45Q4956.85-35.6 4956.42-25.85 4956-16.1 4956-4.9L4956-4.9Q4956-3.35 4956.4-2.73 4956.8-2.1 4957.8-2.1L4957.8-2.1Q4958.35-2.1 4958.85-2.15 4959.35-2.2 4959.55-2.2L4959.55-2.2 4959.65-2 4959.2 0.15Q4958.75 0.1 4957.45 0.05 4956.15 0 4954.65 0L4954.65 0Q4953.35 0 4951.77 0.13 4950.2 0.25 4949.7 0.3L4949.7 0.3 4949.95-1.75ZM4957.25-11.7L4957.35-12.5 4963.3-18.2Q4964-18.85 4964.25-19.23 4964.5-19.6 4964.5-19.95L4964.5-19.95Q4964.5-20.5 4963.85-20.75 4963.2-21 4961.75-21L4961.75-21 4961.6-21.25 4962.05-22.7Q4962.6-22.7 4964.07-22.65 4965.55-22.6 4967.1-22.6L4967.1-22.6Q4968.3-22.6 4969.85-22.73 4971.4-22.85 4971.85-22.9L4971.85-22.9 4972-22.65 4971.6-21.1Q4969.55-20.5 4967.47-18.8 4965.4-17.1 4962.5-14.2L4962.5-14.2Q4962.5-14.2 4960.95-12.65L4960.95-12.65 4966.2-5.9Q4967.9-3.7 4969.3-2.75 4970.7-1.8 4972.25-1.8L4972.25-1.8 4972.4-1.55 4972.1-0.1Q4971.65 0.05 4970.25 0.38 4968.85 0.7 4968.4 0.7L4968.4 0.7Q4967.65 0.7 4966.65 0.2L4966.65 0.2Q4965.9-0.2 4965.12-1.03 4964.35-1.85 4963.15-3.55L4963.15-3.55 4957.25-11.7ZM5938.37 0.6L5938.57-1.45Q5940.07-1.85 5940.72-2.63 5941.37-3.4 5941.37-4.7L5941.37-4.7 5941.37-17.4Q5941.37-20.1 5939.52-20.1L5939.52-20.1Q5939.17-20.1 5938.77-20.03 5938.37-19.95 5938.27-19.9L5938.27-19.9 5938.47-21.75Q5940.57-22.05 5942.79-22.55 5945.02-23.05 5945.67-23.2L5945.67-23.2 5945.92-22.6Q5945.47-21.55 5945.12-16.18 5944.77-10.8 5944.77-4.9L5944.77-4.9Q5944.77-3.45 5945.17-2.78 5945.57-2.1 5946.52-2.1L5946.52-2.1Q5947.07-2.1 5947.57-2.15 5948.07-2.2 5948.27-2.2L5948.27-2.2 5948.37-2 5947.97 0.15Q5947.52 0.1 5946.27 0.05 5945.02 0 5943.52 0L5943.52 0Q5942.22 0 5940.54 0.25 5938.87 0.5 5938.37 0.6L5938.37 0.6ZM5942.77-29.1Q5941.62-29.1 5940.97-29.85 5940.32-30.6 5940.32-31.65L5940.32-31.65Q5940.32-32.85 5941.17-33.73 5942.02-34.6 5943.27-34.6L5943.27-34.6Q5944.42-34.6 5945.07-33.85 5945.72-33.1 5945.72-32.05L5945.72-32.05Q5945.72-30.85 5944.87-29.98 5944.02-29.1 5942.77-29.1L5942.77-29.1ZM6929.69-1.45Q6931.19-1.85 6931.84-2.63 6932.49-3.4 6932.49-4.7L6932.49-4.7 6932.69-14.6Q6932.69-17.1 6931.61-18.45 6930.54-19.8 6928.54-19.8L6928.54-19.8Q6926.94-19.8 6925.29-18.98 6923.64-18.15 6922.39-17.2L6922.39-17.2Q6921.94-6.85 6921.94-4.9L6921.94-4.9Q6921.94-3.35 6922.34-2.73 6922.74-2.1 6923.74-2.1L6923.74-2.1Q6924.29-2.1 6924.79-2.15 6925.29-2.2 6925.49-2.2L6925.49-2.2 6925.59-2 6925.14 0.15Q6924.69 0.1 6923.39 0.05 6922.09 0 6920.59 0L6920.59 0Q6919.29 0 6917.71 0.13 6916.14 0.25 6915.64 0.3L6915.64 0.3 6915.89-1.75Q6917.34-2 6917.94-2.65 6918.54-3.3 6918.54-4.7L6918.54-4.7 6918.54-16.9Q6918.54-18.6 6917.99-19.28 6917.44-19.95 6916.09-19.95L6916.09-19.95 6915.54-19.95 6915.39-20.15 6915.54-21.8Q6917.69-22.15 6919.81-22.63 6921.94-23.1 6922.54-23.25L6922.54-23.25 6922.84-22.85Q6922.74-22.55 6922.54-21.58 6922.34-20.6 6922.29-19.55L6922.29-19.55 6922.39-19.4Q6928.09-23.2 6929.74-23.2L6929.74-23.2Q6932.89-23.2 6934.74-21.45 6936.59-19.7 6936.59-16.75L6936.59-16.75Q6936.59-16.25 6936.29-12.15L6936.29-12.15Q6935.89-6.95 6935.89-4.9L6935.89-4.9Q6935.89-3.45 6936.29-2.78 6936.69-2.1 6937.64-2.1L6937.64-2.1Q6938.19-2.1 6938.69-2.15 6939.19-2.2 6939.39-2.2L6939.39-2.2 6939.49-2 6939.09 0.15Q6938.64 0.1 6937.39 0.05 6936.14 0 6934.64 0L6934.64 0Q6933.34 0 6931.66 0.25 6929.99 0.5 6929.49 0.6L6929.49 0.6 6929.69-1.45ZM7927.56-21.15Q7926.61-21 7923.26-20.7L7923.26-20.7 7923.06-20.45Q7925.06-18.25 7925.06-15.35L7925.06-15.35Q7925.06-12.95 7923.73-10.9 7922.41-8.85 7920.16-7.68 7917.91-6.5 7915.21-6.5L7915.21-6.5Q7913.76-6.5 7912.41-6.9L7912.41-6.9Q7911.26-6.25 7910.76-5.7 7910.26-5.15 7910.26-4.6L7910.26-4.6Q7910.26-3.45 7911.81-3 7913.36-2.55 7916.66-2.15L7916.66-2.15Q7919.91-1.75 7921.91-1.33 7923.91-0.9 7925.36 0.2 7926.81 1.3 7926.81 3.25L7926.81 3.25Q7926.81 5.45 7925.03 7.5 7923.26 9.55 7920.38 10.83 7917.51 12.1 7914.46 12.1L7914.46 12.1Q7910.91 12.1 7908.88 10.33 7906.86 8.55 7906.86 5.45L7906.86 5.45Q7907.56 4.55 7908.88 3.35 7910.21 2.15 7911.81 0.95L7911.81 0.95 7911.81 0.65Q7909.21 0.2 7907.81-1.05 7906.41-2.3 7906.36-4.25L7906.36-4.25Q7908.31-6.1 7910.56-7.45L7910.56-7.45 7910.56-7.65Q7908.81-8.65 7907.83-10.33 7906.86-12 7906.86-14.1L7906.86-14.1Q7906.86-16.55 7908.13-18.63 7909.41-20.7 7911.53-21.95 7913.66-23.2 7916.16-23.2L7916.16-23.2Q7917.31-23.2 7919.01-22.9L7919.01-22.9Q7920.26-22.65 7921.06-22.65L7921.06-22.65Q7923.31-22.9 7927.96-24.15L7927.96-24.15 7928.11-23.95 7927.56-21.15ZM7916.36-8.7Q7918.66-8.7 7919.98-10.15 7921.31-11.6 7921.31-14.15L7921.31-14.15Q7921.31-17.05 7919.71-18.85 7918.11-20.65 7915.56-20.65L7915.56-20.65Q7913.26-20.65 7911.93-19.15 7910.61-17.65 7910.61-15.1L7910.61-15.1Q7910.61-12.25 7912.21-10.48 7913.81-8.7 7916.36-8.7L7916.36-8.7ZM7913.96 1.05Q7912.46 2.1 7911.66 3.38 7910.86 4.65 7910.86 5.9L7910.86 5.9Q7910.86 7.6 7912.31 8.63 7913.76 9.65 7916.16 9.65L7916.16 9.65Q7918.06 9.65 7919.78 8.97 7921.51 8.3 7922.56 7.15 7923.61 6 7923.61 4.7L7923.61 4.7Q7923.61 3.7 7922.86 3.1 7922.11 2.5 7920.08 2.05 7918.06 1.6 7913.96 1.05L7913.96 1.05ZM9875.85 0.6Q9873.75 0.6 9872 0.23 9870.25-0.15 9869.12-0.6 9868-1.05 9868-1.1L9868-1.1 9867.75-1.6Q9867.8-1.9 9867.95-3.1 9868.1-4.3 9868.22-6.23 9868.35-8.15 9868.35-10.3L9868.35-10.3 9870.6-10.55Q9870.6-6.8 9871.1-5 9871.6-3.2 9872.95-2.53 9874.3-1.85 9877.1-1.85L9877.1-1.85Q9880.25-1.85 9882.15-3.33 9884.05-4.8 9884.05-7.35L9884.05-7.35Q9884.05-8.85 9883.02-10.05 9882-11.25 9880.6-12.1 9879.2-12.95 9876.45-14.4L9876.45-14.4Q9873.85-15.75 9872.2-16.88 9870.55-18 9869.42-19.55 9868.3-21.1 9868.3-23.15L9868.3-23.15Q9868.3-25.75 9869.82-27.88 9871.35-30 9873.97-31.23 9876.6-32.45 9879.8-32.45L9879.8-32.45Q9881.8-32.45 9883.5-32.18 9885.2-31.9 9886.2-31.6 9887.2-31.3 9887.45-31.2L9887.45-31.2 9887.6-30.9Q9887.55-30.6 9887.35-29.5 9887.15-28.4 9886.9-26.45 9886.65-24.5 9886.5-22.45L9886.5-22.45 9884.55-22.25 9884.25-22.5Q9884.3-22.7 9884.35-23.43 9884.4-24.15 9884.4-25.1L9884.4-25.1Q9884.4-27.75 9883.1-28.75 9881.8-29.75 9878.45-29.75L9878.45-29.75Q9875.7-29.75 9873.92-28.38 9872.15-27 9872.15-24.95L9872.15-24.95Q9872.15-22.95 9873.87-21.48 9875.6-20 9878.95-18.25L9878.95-18.25Q9882.2-16.6 9883.9-15.53 9885.6-14.45 9886.9-12.85 9888.2-11.25 9888.2-9.15L9888.2-9.15Q9888.2-6.35 9886.62-4.13 9885.05-1.9 9882.25-0.65 9879.45 0.6 9875.85 0.6L9875.85 0.6ZM10856.72 11.85L10856.97 9.9Q10858.07 9.75 10858.59 9.45 10859.12 9.15 10859.32 8.45 10859.52 7.75 10859.52 6.3L10859.52 6.3Q10859.52 4.2 10859.57 2.7L10859.57 2.7 10859.62-2 10859.62-16.9Q10859.62-18.6 10859.07-19.28 10858.52-19.95 10857.17-19.95L10857.17-19.95 10856.62-19.95 10856.47-20.15 10856.62-21.8Q10858.77-22.15 10860.89-22.63 10863.02-23.1 10863.62-23.25L10863.62-23.25 10863.92-22.85Q10863.87-22.6 10863.69-21.78 10863.52-20.95 10863.42-20.15L10863.42-20.15 10863.62-19.8Q10868.32-23.05 10869.42-23.05L10869.42-23.05Q10872.27-23.05 10874.47-21.73 10876.67-20.4 10877.87-18 10879.07-15.6 10879.07-12.5L10879.07-12.5Q10879.07-8.95 10877.37-5.95 10875.67-2.95 10872.82-1.18 10869.97 0.6 10866.62 0.6L10866.62 0.6Q10865.52 0.6 10864.44 0.53 10863.37 0.45 10862.97 0.4L10862.97 0.4 10863.02 5.55Q10863.02 7.85 10863.49 8.68 10863.97 9.5 10865.37 9.5L10865.37 9.5 10867.07 9.45 10867.17 9.6 10866.77 11.5 10862.02 11.5Q10860.22 11.5 10858.69 11.65 10857.17 11.8 10856.72 11.85L10856.72 11.85ZM10868.02-2.15Q10871.37-2.15 10873.29-4.42 10875.22-6.7 10875.22-10.65L10875.22-10.65Q10875.22-13.15 10874.34-15.2 10873.47-17.25 10871.94-18.45 10870.42-19.65 10868.62-19.65L10868.62-19.65Q10867.62-19.65 10866.17-18.98 10864.72-18.3 10863.42-17.2L10863.42-17.2Q10863.02-10.65 10863.02-3.1L10863.02-3.1Q10864.02-2.7 10865.39-2.43 10866.77-2.15 10868.02-2.15L10868.02-2.15ZM11862.54 0.6Q11858.49 0.6 11858.09-3.45L11858.09-3.45 11857.89-3.5Q11856.09-1.7 11854.61-0.65 11853.14 0.4 11852.39 0.4L11852.39 0.4Q11849.59 0.4 11847.79-1.35 11845.99-3.1 11845.99-5.8L11845.99-5.8Q11845.99-7.25 11846.71-8.35 11847.44-9.45 11848.64-9.8L11848.64-9.8 11858.14-12.4 11858.19-14.6Q11858.19-17.1 11857.04-18.5 11855.89-19.9 11853.79-19.9L11853.79-19.9Q11852.39-19.9 11850.84-19.25 11849.29-18.6 11847.79-17.4L11847.79-17.4 11847.54-17.55 11846.94-19.7Q11849.29-21.05 11851.66-22.13 11854.04-23.2 11855.09-23.2L11855.09-23.2Q11858.34-23.2 11860.19-21.5 11862.04-19.8 11862.04-16.75L11862.04-16.75Q11862.04-15.65 11861.69-12.25L11861.69-12.25Q11861.14-6.75 11861.14-5.25L11861.14-5.25Q11861.14-4.15 11861.69-3.55 11862.24-2.95 11863.19-2.95L11863.19-2.95Q11863.99-2.95 11864.84-3.33 11865.69-3.7 11866.19-4.2L11866.19-4.2 11866.89-3.4Q11866.14-2.15 11864.96-0.98 11863.79 0.2 11862.54 0.6L11862.54 0.6ZM11853.24-3Q11854.19-3 11855.46-3.68 11856.74-4.35 11857.79-5.4L11857.79-5.4 11858.04-10.5 11851.24-8.45Q11849.79-8 11849.79-6.35L11849.79-6.35Q11849.79-4.9 11850.76-3.95 11851.74-3 11853.24-3L11853.24-3ZM12842.56 0.6Q12837.81 0.6 12834.96-2.4 12832.11-5.4 12832.11-10.45L12832.11-10.45Q12832.11-14 12833.63-16.93 12835.16-19.85 12837.78-21.53 12840.41-23.2 12843.66-23.2L12843.66-23.2Q12845.06-23.2 12846.36-23 12847.66-22.8 12848.48-22.58 12849.31-22.35 12849.51-22.25L12849.51-22.25 12849.66-21.9Q12849.61-21.65 12849.38-20.73 12849.16-19.8 12848.91-18.28 12848.66-16.75 12848.61-15L12848.61-15 12846.56-14.85 12846.56-16.4Q12846.56-18.25 12845.43-19.38 12844.31-20.5 12842.46-20.5L12842.46-20.5Q12839.41-20.5 12837.76-18.32 12836.11-16.15 12836.11-12.15L12836.11-12.15Q12836.11-7.8 12837.93-5.28 12839.76-2.75 12842.91-2.75L12842.91-2.75Q12844.16-2.75 12845.41-3.13 12846.66-3.5 12847.51-3.88 12848.36-4.25 12848.56-4.4L12848.56-4.4 12848.86-4.3 12849.41-2.75Q12849.06-2.5 12847.88-1.7 12846.71-0.9 12845.18-0.15 12843.66 0.6 12842.56 0.6L12842.56 0.6ZM13826.13 0.6Q13823.03 0.6 13820.63-0.78 13818.23-2.15 13816.93-4.67 13815.63-7.2 13815.63-10.45L13815.63-10.45Q13815.63-13.8 13817.15-16.75 13818.68-19.7 13821.23-21.45 13823.78-23.2 13826.68-23.2L13826.68-23.2Q13830.33-23.2 13832.23-21.35 13834.13-19.5 13834.13-15.95L13834.13-15.95Q13834.13-14.5 13833.83-13.5L13833.83-13.5 13833.18-12.9 13819.38-12.9Q13819.33-8.05 13821.3-5.43 13823.28-2.8 13826.83-2.8L13826.83-2.8Q13829.63-2.8 13832.93-4.35L13832.93-4.35 13833.23-4.25 13833.78-2.8Q13831.98-1.5 13829.8-0.45 13827.63 0.6 13826.13 0.6L13826.13 0.6ZM13819.58-14.75L13828.63-15.2Q13829.38-15.3 13829.63-15.55 13829.88-15.8 13829.88-16.55L13829.88-16.55Q13829.88-18.55 13828.8-19.6 13827.73-20.65 13825.73-20.65L13825.73-20.65Q13823.38-20.65 13821.7-19.05 13820.03-17.45 13819.58-14.75L13819.58-14.75ZM15789.22 0.6Q15784.72 0.6 15781.32-1.3 15777.92-3.2 15776.09-6.68 15774.27-10.15 15774.27-14.85L15774.27-14.85Q15774.27-19.85 15776.52-23.88 15778.77-27.9 15782.74-30.18 15786.72-32.45 15791.72-32.45L15791.72-32.45Q15793.57-32.45 15795.49-32.18 15797.42-31.9 15798.74-31.63 15800.07-31.35 15800.42-31.25L15800.42-31.25 15800.62-30.95Q15800.52-30.65 15800.29-29.5 15800.07-28.35 15799.79-26.5 15799.52-24.65 15799.37-22.6L15799.37-22.6 15796.97-22.4Q15797.02-22.65 15797.07-23.33 15797.12-24 15797.12-24.85L15797.12-24.85Q15797.12-29.5 15789.77-29.5L15789.77-29.5Q15786.47-29.5 15783.97-27.9 15781.47-26.3 15780.12-23.38 15778.77-20.45 15778.77-16.5L15778.77-16.5Q15778.77-12.15 15780.19-8.85 15781.62-5.55 15784.22-3.73 15786.82-1.9 15790.22-1.9L15790.22-1.9Q15793.62-1.9 15795.69-3.83 15797.77-5.75 15798.72-9.8L15798.72-9.8 15801.12-10Q15800.97-9.25 15800.47-6.68 15799.97-4.1 15799.77-1.85L15799.77-1.85 15799.47-1.4Q15799.47-1.35 15797.94-0.83 15796.42-0.3 15794.14 0.15 15791.87 0.6 15789.22 0.6L15789.22 0.6ZM16777.14 0.6Q16774.29 0.6 16772.09-0.8 16769.89-2.2 16768.66-4.73 16767.44-7.25 16767.44-10.5L16767.44-10.5Q16767.44-14 16768.96-16.93 16770.49-19.85 16773.14-21.53 16775.79-23.2 16779.04-23.2L16779.04-23.2Q16781.84-23.2 16784.06-21.8 16786.29-20.4 16787.51-17.88 16788.74-15.35 16788.74-12.1L16788.74-12.1Q16788.74-8.6 16787.21-5.68 16785.69-2.75 16783.04-1.07 16780.39 0.6 16777.14 0.6L16777.14 0.6ZM16778.54-1.85Q16781.34-1.85 16782.99-4.13 16784.64-6.4 16784.64-10.3L16784.64-10.3Q16784.64-13.25 16783.74-15.58 16782.84-17.9 16781.21-19.2 16779.59-20.5 16777.54-20.5L16777.54-20.5Q16774.74-20.5 16773.09-18.2 16771.44-15.9 16771.44-11.95L16771.44-11.95Q16771.44-9 16772.34-6.7 16773.24-4.4 16774.84-3.13 16776.44-1.85 16778.54-1.85L16778.54-1.85ZM17755.91 0.2L17756.16-1.75Q17759.01-2.15 17759.01-4.7L17759.01-4.7 17759.01-18.2Q17758.96-19.4 17758.33-19.78 17757.71-20.15 17755.86-20.25L17755.86-20.25 17755.66-20.55 17756.01-22.25 17759.01-22.8 17759.01-23Q17759.01-27.3 17760.43-30.5 17761.86-33.7 17764.43-35.4 17767.01-37.1 17770.51-37.1L17770.51-37.1Q17772.01-37.1 17773.28-36.9 17774.56-36.7 17775.28-36.48 17776.01-36.25 17776.21-36.15L17776.21-36.15 17776.31-35.7Q17776.16-35.45 17775.68-34.52 17775.21-33.6 17774.76-32.45L17774.76-32.45 17774.21-32.3Q17774.01-32.45 17773.23-32.9 17772.46-33.35 17771.18-33.75 17769.91-34.15 17768.46-34.15L17768.46-34.15Q17765.61-34.15 17764.21-31.88 17762.81-29.6 17762.71-24.9L17762.71-24.9 17762.66-22.45Q17765.26-22.45 17767.11-22.5 17768.96-22.55 17769.56-22.6L17769.56-22.6 17769.71-22.45 17769.21-19.8Q17768.66-19.85 17766.88-19.9 17765.11-19.95 17762.61-19.95L17762.61-19.95 17762.41-4.9Q17762.41-3.5 17763.03-2.83 17763.66-2.15 17764.96-2.15L17764.96-2.15Q17766.16-2.15 17766.93-2.2 17767.71-2.25 17767.96-2.25L17767.96-2.25 17768.06-2.05 17767.71 0.1Q17767.01 0.1 17765.16 0.05 17763.31 0 17761.51 0L17761.51 0Q17759.76 0 17758.08 0.08 17756.41 0.15 17755.91 0.2L17755.91 0.2ZM18735.48 0.2L18735.73-1.75Q18738.58-2.15 18738.58-4.7L18738.58-4.7 18738.58-18.2Q18738.53-19.4 18737.9-19.78 18737.28-20.15 18735.43-20.25L18735.43-20.25 18735.23-20.55 18735.58-22.25 18738.58-22.8 18738.58-23Q18738.58-27.3 18740-30.5 18741.43-33.7 18744-35.4 18746.58-37.1 18750.08-37.1L18750.08-37.1Q18751.58-37.1 18752.85-36.9 18754.13-36.7 18754.85-36.48 18755.58-36.25 18755.78-36.15L18755.78-36.15 18755.88-35.7Q18755.73-35.45 18755.25-34.52 18754.78-33.6 18754.33-32.45L18754.33-32.45 18753.78-32.3Q18753.58-32.45 18752.8-32.9 18752.03-33.35 18750.75-33.75 18749.48-34.15 18748.03-34.15L18748.03-34.15Q18745.18-34.15 18743.78-31.88 18742.38-29.6 18742.28-24.9L18742.28-24.9 18742.23-22.45Q18744.83-22.45 18746.68-22.5 18748.53-22.55 18749.13-22.6L18749.13-22.6 18749.28-22.45 18748.78-19.8Q18748.23-19.85 18746.45-19.9 18744.68-19.95 18742.18-19.95L18742.18-19.95 18741.98-4.9Q18741.98-3.5 18742.6-2.83 18743.23-2.15 18744.53-2.15L18744.53-2.15Q18745.73-2.15 18746.5-2.2 18747.28-2.25 18747.53-2.25L18747.53-2.25 18747.63-2.05 18747.28 0.1Q18746.58 0.1 18744.73 0.05 18742.88 0 18741.08 0L18741.08 0Q18739.33 0 18737.65 0.08 18735.98 0.15 18735.48 0.2L18735.48 0.2ZM19724.15 0.6Q19721.05 0.6 19718.65-0.78 19716.25-2.15 19714.95-4.67 19713.65-7.2 19713.65-10.45L19713.65-10.45Q19713.65-13.8 19715.17-16.75 19716.7-19.7 19719.25-21.45 19721.8-23.2 19724.7-23.2L19724.7-23.2Q19728.35-23.2 19730.25-21.35 19732.15-19.5 19732.15-15.95L19732.15-15.95Q19732.15-14.5 19731.85-13.5L19731.85-13.5 19731.2-12.9 19717.4-12.9Q19717.35-8.05 19719.32-5.43 19721.3-2.8 19724.85-2.8L19724.85-2.8Q19727.65-2.8 19730.95-4.35L19730.95-4.35 19731.25-4.25 19731.8-2.8Q19730-1.5 19727.82-0.45 19725.65 0.6 19724.15 0.6L19724.15 0.6ZM19717.6-14.75L19726.65-15.2Q19727.4-15.3 19727.65-15.55 19727.9-15.8 19727.9-16.55L19727.9-16.55Q19727.9-18.55 19726.82-19.6 19725.75-20.65 19723.75-20.65L19723.75-20.65Q19721.4-20.65 19719.72-19.05 19718.05-17.45 19717.6-14.75L19717.6-14.75ZM20709.62 0.6Q20706.52 0.6 20704.12-0.78 20701.72-2.15 20700.42-4.67 20699.12-7.2 20699.12-10.45L20699.12-10.45Q20699.12-13.8 20700.64-16.75 20702.17-19.7 20704.72-21.45 20707.27-23.2 20710.17-23.2L20710.17-23.2Q20713.82-23.2 20715.72-21.35 20717.62-19.5 20717.62-15.95L20717.62-15.95Q20717.62-14.5 20717.32-13.5L20717.32-13.5 20716.67-12.9 20702.87-12.9Q20702.82-8.05 20704.79-5.43 20706.77-2.8 20710.32-2.8L20710.32-2.8Q20713.12-2.8 20716.42-4.35L20716.42-4.35 20716.72-4.25 20717.27-2.8Q20715.47-1.5 20713.29-0.45 20711.12 0.6 20709.62 0.6L20709.62 0.6ZM20703.07-14.75L20712.12-15.2Q20712.87-15.3 20713.12-15.55 20713.37-15.8 20713.37-16.55L20713.37-16.55Q20713.37-18.55 20712.29-19.6 20711.22-20.65 20709.22-20.65L20709.22-20.65Q20706.87-20.65 20705.19-19.05 20703.52-17.45 20703.07-14.75L20703.07-14.75ZM21690.04 0.6Q21688.69 0.6 21687.96-0.23 21687.24-1.05 21687.24-2.25L21687.24-2.25Q21687.24-3.55 21688.09-4.45 21688.94-5.35 21690.34-5.35L21690.34-5.35Q21691.69-5.35 21692.44-4.53 21693.19-3.7 21693.19-2.5L21693.19-2.5Q21693.19-1.2 21692.31-0.3 21691.44 0.6 21690.04 0.6L21690.04 0.6ZM21690.04-13.4Q21688.69-13.4 21687.96-14.23 21687.24-15.05 21687.24-16.25L21687.24-16.25Q21687.24-17.55 21688.09-18.45 21688.94-19.35 21690.34-19.35L21690.34-19.35Q21691.69-19.35 21692.44-18.53 21693.19-17.7 21693.19-16.5L21693.19-16.5Q21693.19-15.2 21692.31-14.3 21691.44-13.4 21690.04-13.4L21690.04-13.4ZM23659.23 2Q23654.88-4.75 23650.75-10.88 23646.63-17 23643.98-20.78 23641.33-24.55 23640.63-25.55L23640.63-25.55 23640.38-25.55 23640.13-4.2Q23640.13-3.1 23640.48-2.65 23640.83-2.2 23641.68-2.2L23641.68-2.2 23644.23-2.25 23644.33-2.05 23643.88 0.2Q23643.33 0.15 23641.63 0.08 23639.93 0 23638.58 0L23638.58 0Q23637.33 0 23635.85 0.18 23634.38 0.35 23633.93 0.4L23633.93 0.4 23634.18-1.9Q23635.73-2.1 23636.48-2.83 23637.23-3.55 23637.28-5.05L23637.28-5.05 23637.93-26.9Q23637.93-28.45 23637-29.1 23636.08-29.75 23633.58-30L23633.58-30 23633.43-30.25 23633.83-32.1Q23634.28-32.05 23635.78-31.95 23637.28-31.85 23638.13-31.85L23638.13-31.85Q23639.18-31.85 23640.18-31.93 23641.18-32 23641.48-32.05L23641.48-32.05Q23645.18-26.3 23648.9-20.8 23652.63-15.3 23655.13-11.75 23657.63-8.2 23658.28-7.25L23658.28-7.25 23658.53-7.25 23658.53-27.5Q23658.53-29.65 23656.88-29.65L23656.88-29.65 23654.98-29.6 23654.88-29.8 23655.33-32.05Q23655.83-32 23657.23-31.93 23658.63-31.85 23660.08-31.85L23660.08-31.85Q23661.38-31.85 23662.95-32.02 23664.53-32.2 23665.03-32.25L23665.03-32.25 23664.78-29.95Q23663.03-29.7 23662.23-28.98 23661.43-28.25 23661.38-26.8L23661.38-26.8 23660.68 1.3 23659.23 2ZM24640.25 0.6Q24637.4 0.6 24635.2-0.8 24633-2.2 24631.77-4.73 24630.55-7.25 24630.55-10.5L24630.55-10.5Q24630.55-14 24632.05-16.9 24633.55-19.8 24636.07-21.5 24638.6-23.2 24641.5-23.2L24641.5-23.2Q24642.65-23.2 24643.55-22.98 24644.45-22.75 24645.8-22.25L24645.8-22.25Q24647.65-21.5 24648.9-21.5L24648.9-21.5Q24650.4-21.5 24651.22-22.15 24652.05-22.8 24652.05-23.95L24652.05-23.95Q24652.05-24.85 24651.62-25.8 24651.2-26.75 24650.45-27.45L24650.45-27.45 24650.55-28.15Q24651.45-28.85 24652.05-29.1L24652.05-29.1Q24652.9-29.45 24653.45-29.45L24653.45-29.45Q24654.6-29.45 24655.3-28.38 24656-27.3 24656-25.55L24656-25.55Q24656-23.9 24655.1-22.58 24654.2-21.25 24652.67-20.5 24651.15-19.75 24649.4-19.75L24649.4-19.75Q24651.85-16.65 24651.85-12.1L24651.85-12.1Q24651.85-8.6 24650.32-5.68 24648.8-2.75 24646.15-1.07 24643.5 0.6 24640.25 0.6L24640.25 0.6ZM24641.65-1.85Q24644.45-1.85 24646.1-4.13 24647.75-6.4 24647.75-10.3L24647.75-10.3Q24647.75-13.25 24646.85-15.58 24645.95-17.9 24644.32-19.2 24642.7-20.5 24640.65-20.5L24640.65-20.5Q24637.85-20.5 24636.2-18.2 24634.55-15.9 24634.55-11.95L24634.55-11.95Q24634.55-9 24635.45-6.7 24636.35-4.4 24637.95-3.13 24639.55-1.85 24641.65-1.85L24641.65-1.85ZM25619.92 0.6L25620.12-1.45Q25621.62-1.85 25622.27-2.63 25622.92-3.4 25622.92-4.7L25622.92-4.7 25622.92-17.4Q25622.92-20.1 25621.07-20.1L25621.07-20.1Q25620.72-20.1 25620.32-20.03 25619.92-19.95 25619.82-19.9L25619.82-19.9 25620.02-21.75Q25622.12-22.05 25624.34-22.55 25626.57-23.05 25627.22-23.2L25627.22-23.2 25627.47-22.6Q25627.02-21.55 25626.67-16.18 25626.32-10.8 25626.32-4.9L25626.32-4.9Q25626.32-3.45 25626.72-2.78 25627.12-2.1 25628.07-2.1L25628.07-2.1Q25628.62-2.1 25629.12-2.15 25629.62-2.2 25629.82-2.2L25629.82-2.2 25629.92-2 25629.52 0.15Q25629.07 0.1 25627.82 0.05 25626.57 0 25625.07 0L25625.07 0Q25623.77 0 25622.09 0.25 25620.42 0.5 25619.92 0.6L25619.92 0.6ZM25624.32-29.1Q25623.17-29.1 25622.52-29.85 25621.87-30.6 25621.87-31.65L25621.87-31.65Q25621.87-32.85 25622.72-33.73 25623.57-34.6 25624.82-34.6L25624.82-34.6Q25625.97-34.6 25626.62-33.85 25627.27-33.1 25627.27-32.05L25627.27-32.05Q25627.27-30.85 25626.42-29.98 25625.57-29.1 25624.32-29.1L25624.32-29.1ZM27575.01-27Q27575.01-28.6 27574.63-29.15 27574.26-29.7 27573.16-29.7L27573.16-29.7Q27572.66-29.7 27572.16-29.65 27571.66-29.6 27571.46-29.6L27571.46-29.6 27571.36-29.8 27571.71-32Q27572.31-31.95 27573.96-31.9 27575.61-31.85 27577.26-31.85L27577.26-31.85Q27578.61-31.85 27580.33-32.02 27582.06-32.2 27582.61-32.3L27582.61-32.3 27582.41-30.05Q27580.56-29.75 27579.86-29.13 27579.16-28.5 27579.11-27.05L27579.11-27.05 27578.51-5.6Q27578.46-3.6 27578.91-2.9 27579.36-2.2 27580.71-2.2L27580.71-2.2Q27581.46-2.2 27582.11-2.25 27582.76-2.3 27582.96-2.35L27582.96-2.35 27583.06-2.15 27582.61 0.15Q27581.96 0.1 27580.16 0.05 27578.36 0 27576.46 0L27576.46 0 27570.71 0.05 27571.21-2.2Q27572.81-2.35 27573.58-2.7 27574.36-3.05 27574.66-3.8 27574.96-4.55 27574.96-6L27574.96-6 27575.01-27ZM27580.01-16.45L27588.96-25.75Q27590.51-27.3 27590.51-28.35L27590.51-28.35Q27590.51-29.65 27587.36-29.85L27587.36-29.85 27587.26-30.05 27587.61-32.2Q27588.21-32.15 27590.08-32 27591.96-31.85 27593.11-31.85L27593.11-31.85Q27594.31-31.85 27595.78-31.93 27597.26-32 27597.71-32.05L27597.71-32.05 27597.91-31.7 27597.56-29.65Q27596.26-29.4 27595.16-28.6 27594.06-27.8 27591.81-25.45L27591.81-25.45 27583.76-17 27592.16-6.05Q27593.96-3.7 27595.38-2.75 27596.81-1.8 27598.56-1.8L27598.56-1.8 27598.76-1.6 27598.46 0.1Q27597.91 0.2 27596.28 0.45 27594.66 0.7 27594.31 0.7L27594.31 0.7Q27593.11 0.7 27591.66-0.43 27590.21-1.55 27588.71-3.6L27588.71-3.6 27579.96-15.75 27580.01-16.45ZM28564.08-1.95Q28565.53-2.1 28566.1-2.7 28566.68-3.3 28566.68-4.7L28566.68-4.7 28566.68-31.3Q28566.68-32.65 28566.23-33.27 28565.78-33.9 28564.83-33.9L28564.83-33.9 28563.78-33.9 28563.58-34.05 28563.78-35.65Q28565.48-35.85 28567.63-36.27 28569.78-36.7 28571.18-37.1L28571.18-37.1 28571.48-36.45Q28571.13-35.9 28570.8-31.1 28570.48-26.3 28570.28-19.3L28570.28-19.3Q28575.98-23.2 28577.78-23.2L28577.78-23.2Q28581.03-23.2 28582.83-21.5 28584.63-19.8 28584.63-16.75L28584.63-16.75Q28584.63-15.75 28584.28-12.15L28584.28-12.15Q28583.83-6.3 28583.83-4.9L28583.83-4.9Q28583.83-3.45 28584.23-2.78 28584.63-2.1 28585.58-2.1L28585.58-2.1 28587.33-2.2 28587.43-2 28587.03 0.15Q28583.73 0 28582.58 0L28582.58 0Q28580.58 0 28577.43 0.6L28577.43 0.6 28577.63-1.45Q28579.13-1.85 28579.78-2.63 28580.43-3.4 28580.43-4.7L28580.43-4.7 28580.73-14.6Q28580.73-17.1 28579.65-18.45 28578.58-19.8 28576.58-19.8L28576.58-19.8Q28575.33-19.8 28573.5-19 28571.68-18.2 28570.23-17.05L28570.23-17.05Q28570.08-11.45 28570.08-4.9L28570.08-4.9Q28570.08-3.35 28570.48-2.73 28570.88-2.1 28571.88-2.1L28571.88-2.1 28573.63-2.2 28573.73-2 28573.28 0.15Q28569.83 0 28568.73 0L28568.73 0Q28566.58 0 28563.78 0.1L28563.78 0.1 28564.08-1.95ZM29563.6 0.6Q29560.75 0.6 29558.55-0.8 29556.35-2.2 29555.12-4.73 29553.9-7.25 29553.9-10.5L29553.9-10.5Q29553.9-14 29555.4-16.9 29556.9-19.8 29559.42-21.5 29561.95-23.2 29564.85-23.2L29564.85-23.2Q29566-23.2 29566.9-22.98 29567.8-22.75 29569.15-22.25L29569.15-22.25Q29571-21.5 29572.25-21.5L29572.25-21.5Q29573.75-21.5 29574.57-22.15 29575.4-22.8 29575.4-23.95L29575.4-23.95Q29575.4-24.85 29574.97-25.8 29574.55-26.75 29573.8-27.45L29573.8-27.45 29573.9-28.15Q29574.8-28.85 29575.4-29.1L29575.4-29.1Q29576.25-29.45 29576.8-29.45L29576.8-29.45Q29577.95-29.45 29578.65-28.38 29579.35-27.3 29579.35-25.55L29579.35-25.55Q29579.35-23.9 29578.45-22.58 29577.55-21.25 29576.02-20.5 29574.5-19.75 29572.75-19.75L29572.75-19.75Q29575.2-16.65 29575.2-12.1L29575.2-12.1Q29575.2-8.6 29573.67-5.68 29572.15-2.75 29569.5-1.07 29566.85 0.6 29563.6 0.6L29563.6 0.6ZM29565-1.85Q29567.8-1.85 29569.45-4.13 29571.1-6.4 29571.1-10.3L29571.1-10.3Q29571.1-13.25 29570.2-15.58 29569.3-17.9 29567.67-19.2 29566.05-20.5 29564-20.5L29564-20.5Q29561.2-20.5 29559.55-18.2 29557.9-15.9 29557.9-11.95L29557.9-11.95Q29557.9-9 29558.8-6.7 29559.7-4.4 29561.3-3.13 29562.9-1.85 29565-1.85L29565-1.85ZM29565.5-27.95L29563.9-30.7Q29565.35-31.75 29565.92-32.45 29566.5-33.15 29566.5-33.85L29566.5-33.85Q29566.5-34.4 29566.02-34.73 29565.55-35.05 29564.75-35.05L29564.75-35.05Q29564.1-35.05 29563.45-34.85 29562.8-34.65 29562.4-34.4 29562-34.15 29561.9-34.1L29561.9-34.1 29561.35-34.95Q29561.5-35.1 29562.05-35.6 29562.6-36.1 29563.45-36.68 29564.3-37.25 29565.15-37.55L29565.15-37.55Q29567.05-37.55 29568.15-36.77 29569.25-36 29569.25-34.6L29569.25-34.6Q29569.25-33.75 29568.45-32.65 29567.65-31.55 29566.3-30.55L29566.3-30.55 29567.35-28.8 29565.5-27.95ZM30543.27 0.6L30543.47-1.45Q30544.97-1.85 30545.62-2.63 30546.27-3.4 30546.27-4.7L30546.27-4.7 30546.27-17.4Q30546.27-20.1 30544.42-20.1L30544.42-20.1Q30544.07-20.1 30543.67-20.03 30543.27-19.95 30543.17-19.9L30543.17-19.9 30543.37-21.75Q30545.47-22.05 30547.69-22.55 30549.92-23.05 30550.57-23.2L30550.57-23.2 30550.82-22.6Q30550.37-21.55 30550.02-16.18 30549.67-10.8 30549.67-4.9L30549.67-4.9Q30549.67-3.45 30550.07-2.78 30550.47-2.1 30551.42-2.1L30551.42-2.1Q30551.97-2.1 30552.47-2.15 30552.97-2.2 30553.17-2.2L30553.17-2.2 30553.27-2 30552.87 0.15Q30552.42 0.1 30551.17 0.05 30549.92 0 30548.42 0L30548.42 0Q30547.12 0 30545.44 0.25 30543.77 0.5 30543.27 0.6L30543.27 0.6ZM30547.67-29.1Q30546.52-29.1 30545.87-29.85 30545.22-30.6 30545.22-31.65L30545.22-31.65Q30545.22-32.85 30546.07-33.73 30546.92-34.6 30548.17-34.6L30548.17-34.6Q30549.32-34.6 30549.97-33.85 30550.62-33.1 30550.62-32.05L30550.62-32.05Q30550.62-30.85 30549.77-29.98 30548.92-29.1 30547.67-29.1L30547.67-29.1ZM32519.71 2Q32515.36-4.75 32511.23-10.88 32507.11-17 32504.46-20.78 32501.81-24.55 32501.11-25.55L32501.11-25.55 32500.86-25.55 32500.61-4.2Q32500.61-3.1 32500.96-2.65 32501.31-2.2 32502.16-2.2L32502.16-2.2 32504.71-2.25 32504.81-2.05 32504.36 0.2Q32503.81 0.15 32502.11 0.08 32500.41 0 32499.06 0L32499.06 0Q32497.81 0 32496.33 0.18 32494.86 0.35 32494.41 0.4L32494.41 0.4 32494.66-1.9Q32496.21-2.1 32496.96-2.83 32497.71-3.55 32497.76-5.05L32497.76-5.05 32498.41-26.9Q32498.41-28.45 32497.48-29.1 32496.56-29.75 32494.06-30L32494.06-30 32493.91-30.25 32494.31-32.1Q32494.76-32.05 32496.26-31.95 32497.76-31.85 32498.61-31.85L32498.61-31.85Q32499.66-31.85 32500.66-31.93 32501.66-32 32501.96-32.05L32501.96-32.05Q32505.66-26.3 32509.38-20.8 32513.11-15.3 32515.61-11.75 32518.11-8.2 32518.76-7.25L32518.76-7.25 32519.01-7.25 32519.01-27.5Q32519.01-29.65 32517.36-29.65L32517.36-29.65 32515.46-29.6 32515.36-29.8 32515.81-32.05Q32516.31-32 32517.71-31.93 32519.11-31.85 32520.56-31.85L32520.56-31.85Q32521.86-31.85 32523.43-32.02 32525.01-32.2 32525.51-32.25L32525.51-32.25 32525.26-29.95Q32523.51-29.7 32522.71-28.98 32521.91-28.25 32521.86-26.8L32521.86-26.8 32521.16 1.3 32519.71 2ZM33512.98-21.15Q33512.03-21 33508.68-20.7L33508.68-20.7 33508.48-20.45Q33510.48-18.25 33510.48-15.35L33510.48-15.35Q33510.48-12.95 33509.15-10.9 33507.83-8.85 33505.58-7.68 33503.33-6.5 33500.63-6.5L33500.63-6.5Q33499.18-6.5 33497.83-6.9L33497.83-6.9Q33496.68-6.25 33496.18-5.7 33495.68-5.15 33495.68-4.6L33495.68-4.6Q33495.68-3.45 33497.23-3 33498.78-2.55 33502.08-2.15L33502.08-2.15Q33505.33-1.75 33507.33-1.33 33509.33-0.9 33510.78 0.2 33512.23 1.3 33512.23 3.25L33512.23 3.25Q33512.23 5.45 33510.45 7.5 33508.68 9.55 33505.8 10.83 33502.93 12.1 33499.88 12.1L33499.88 12.1Q33496.33 12.1 33494.3 10.33 33492.28 8.55 33492.28 5.45L33492.28 5.45Q33492.98 4.55 33494.3 3.35 33495.63 2.15 33497.23 0.95L33497.23 0.95 33497.23 0.65Q33494.63 0.2 33493.23-1.05 33491.83-2.3 33491.78-4.25L33491.78-4.25Q33493.73-6.1 33495.98-7.45L33495.98-7.45 33495.98-7.65Q33494.23-8.65 33493.25-10.33 33492.28-12 33492.28-14.1L33492.28-14.1Q33492.28-16.55 33493.55-18.63 33494.83-20.7 33496.95-21.95 33499.08-23.2 33501.58-23.2L33501.58-23.2Q33502.73-23.2 33504.43-22.9L33504.43-22.9Q33505.68-22.65 33506.48-22.65L33506.48-22.65Q33508.73-22.9 33513.38-24.15L33513.38-24.15 33513.53-23.95 33512.98-21.15ZM33501.78-8.7Q33504.08-8.7 33505.4-10.15 33506.73-11.6 33506.73-14.15L33506.73-14.15Q33506.73-17.05 33505.13-18.85 33503.53-20.65 33500.98-20.65L33500.98-20.65Q33498.68-20.65 33497.35-19.15 33496.03-17.65 33496.03-15.1L33496.03-15.1Q33496.03-12.25 33497.63-10.48 33499.23-8.7 33501.78-8.7L33501.78-8.7ZM33499.38 1.05Q33497.88 2.1 33497.08 3.38 33496.28 4.65 33496.28 5.9L33496.28 5.9Q33496.28 7.6 33497.73 8.63 33499.18 9.65 33501.58 9.65L33501.58 9.65Q33503.48 9.65 33505.2 8.97 33506.93 8.3 33507.98 7.15 33509.03 6 33509.03 4.7L33509.03 4.7Q33509.03 3.7 33508.28 3.1 33507.53 2.5 33505.5 2.05 33503.48 1.6 33499.38 1.05L33499.38 1.05ZM34481.85-17.35Q34481.85-20.05 34480-20.05L34480-20.05Q34479.65-20.05 34479.25-19.98 34478.85-19.9 34478.75-19.85L34478.75-19.85 34478.95-21.7Q34480.9-22 34483.15-22.53 34485.4-23.05 34486.1-23.2L34486.1-23.2 34486.4-22.6Q34485.9-21.3 34485.5-16.7 34485.1-12.1 34485.1-7.75L34485.1-7.75Q34485.1-2.85 34489.1-2.85L34489.1-2.85Q34490.6-2.85 34491.9-3.58 34493.2-4.3 34495.15-5.7L34495.15-5.7 34495.15-17.3Q34495.15-18.8 34494.6-19.4 34494.05-20 34492.65-20L34492.65-20 34491.45-19.95 34491.65-21.75Q34493.85-22.05 34496.25-22.55 34498.65-23.05 34499.35-23.2L34499.35-23.2 34499.65-22.6Q34499.2-21.45 34498.87-16.35 34498.55-11.25 34498.55-5.25L34498.55-5.25Q34498.55-4.15 34499.1-3.55 34499.65-2.95 34500.6-2.95L34500.6-2.95Q34501.3-2.95 34501.97-3.23 34502.65-3.5 34503.07-3.8 34503.5-4.1 34503.6-4.2L34503.6-4.2 34504.3-3.4Q34504.1-3.1 34503.37-2.15 34502.65-1.2 34501.67-0.3 34500.7 0.6 34499.95 0.6L34499.95 0.6Q34495.9 0.6 34495.5-3.45L34495.5-3.45 34495.25-3.55Q34492.85-1.7 34490.92-0.55 34489 0.6 34488.3 0.6L34488.3 0.6Q34485.1 0.6 34483.37-0.9 34481.65-2.4 34481.65-5.2L34481.65-5.2 34481.85-17.35ZM35478.97 0.6Q35476.12 0.6 35473.92-0.8 35471.72-2.2 35470.49-4.73 35469.27-7.25 35469.27-10.5L35469.27-10.5Q35469.27-14 35470.79-16.93 35472.32-19.85 35474.97-21.53 35477.62-23.2 35480.87-23.2L35480.87-23.2Q35483.67-23.2 35485.89-21.8 35488.12-20.4 35489.34-17.88 35490.57-15.35 35490.57-12.1L35490.57-12.1Q35490.57-8.6 35489.04-5.68 35487.52-2.75 35484.87-1.07 35482.22 0.6 35478.97 0.6L35478.97 0.6ZM35480.37-1.85Q35483.17-1.85 35484.82-4.13 35486.47-6.4 35486.47-10.3L35486.47-10.3Q35486.47-13.25 35485.57-15.58 35484.67-17.9 35483.04-19.2 35481.42-20.5 35479.37-20.5L35479.37-20.5Q35476.57-20.5 35474.92-18.2 35473.27-15.9 35473.27-11.95L35473.27-11.95Q35473.27-9 35474.17-6.7 35475.07-4.4 35476.67-3.13 35478.27-1.85 35480.37-1.85L35480.37-1.85ZM35486.27-29.4L35485.82-29.45 35481.82-34.85 35481.92-35.4 35483.97-36.7 35484.52-36.65 35487.47-30.1 35486.27-29.4ZM35472.92-25.8Q35474.97-27.35 35477.09-29.08 35479.22-30.8 35479.82-31.35L35479.82-31.35 35480.52-31.35Q35481.12-30.8 35483.24-29.08 35485.37-27.35 35487.42-25.8L35487.42-25.8 35486.72-24.7 35486.27-24.65Q35482.92-26.6 35480.17-27.9L35480.17-27.9Q35477.57-26.7 35474.07-24.65L35474.07-24.65 35473.62-24.7 35472.92-25.8ZM36471.79-1.45Q36473.29-1.85 36473.94-2.63 36474.59-3.4 36474.59-4.7L36474.59-4.7 36474.79-14.6Q36474.79-17.1 36473.71-18.45 36472.64-19.8 36470.64-19.8L36470.64-19.8Q36469.04-19.8 36467.39-18.98 36465.74-18.15 36464.49-17.2L36464.49-17.2Q36464.04-6.85 36464.04-4.9L36464.04-4.9Q36464.04-3.35 36464.44-2.73 36464.84-2.1 36465.84-2.1L36465.84-2.1Q36466.39-2.1 36466.89-2.15 36467.39-2.2 36467.59-2.2L36467.59-2.2 36467.69-2 36467.24 0.15Q36466.79 0.1 36465.49 0.05 36464.19 0 36462.69 0L36462.69 0Q36461.39 0 36459.81 0.13 36458.24 0.25 36457.74 0.3L36457.74 0.3 36457.99-1.75Q36459.44-2 36460.04-2.65 36460.64-3.3 36460.64-4.7L36460.64-4.7 36460.64-16.9Q36460.64-18.6 36460.09-19.28 36459.54-19.95 36458.19-19.95L36458.19-19.95 36457.64-19.95 36457.49-20.15 36457.64-21.8Q36459.79-22.15 36461.91-22.63 36464.04-23.1 36464.64-23.25L36464.64-23.25 36464.94-22.85Q36464.84-22.55 36464.64-21.58 36464.44-20.6 36464.39-19.55L36464.39-19.55 36464.49-19.4Q36470.19-23.2 36471.84-23.2L36471.84-23.2Q36474.99-23.2 36476.84-21.45 36478.69-19.7 36478.69-16.75L36478.69-16.75Q36478.69-16.25 36478.39-12.15L36478.39-12.15Q36477.99-6.95 36477.99-4.9L36477.99-4.9Q36477.99-3.45 36478.39-2.78 36478.79-2.1 36479.74-2.1L36479.74-2.1Q36480.29-2.1 36480.79-2.15 36481.29-2.2 36481.49-2.2L36481.49-2.2 36481.59-2 36481.19 0.15Q36480.74 0.1 36479.49 0.05 36478.24 0 36476.74 0L36476.74 0Q36475.44 0 36473.76 0.25 36472.09 0.5 36471.59 0.6L36471.59 0.6 36471.79-1.45ZM38435.83 0.6Q38431.33 0.6 38427.93-1.3 38424.53-3.2 38422.7-6.68 38420.88-10.15 38420.88-14.85L38420.88-14.85Q38420.88-19.85 38423.13-23.88 38425.38-27.9 38429.35-30.18 38433.33-32.45 38438.33-32.45L38438.33-32.45Q38440.18-32.45 38442.1-32.18 38444.03-31.9 38445.35-31.63 38446.68-31.35 38447.03-31.25L38447.03-31.25 38447.23-30.95Q38447.13-30.65 38446.9-29.5 38446.68-28.35 38446.4-26.5 38446.13-24.65 38445.98-22.6L38445.98-22.6 38443.58-22.4Q38443.63-22.65 38443.68-23.33 38443.73-24 38443.73-24.85L38443.73-24.85Q38443.73-29.5 38436.38-29.5L38436.38-29.5Q38433.08-29.5 38430.58-27.9 38428.08-26.3 38426.73-23.38 38425.38-20.45 38425.38-16.5L38425.38-16.5Q38425.38-12.15 38426.8-8.85 38428.23-5.55 38430.83-3.73 38433.43-1.9 38436.83-1.9L38436.83-1.9Q38440.23-1.9 38442.3-3.83 38444.38-5.75 38445.33-9.8L38445.33-9.8 38447.73-10Q38447.58-9.25 38447.08-6.68 38446.58-4.1 38446.38-1.85L38446.38-1.85 38446.08-1.4Q38446.08-1.35 38444.55-0.83 38443.03-0.3 38440.75 0.15 38438.48 0.6 38435.83 0.6L38435.83 0.6ZM39417.75-17.35Q39417.75-20.05 39415.9-20.05L39415.9-20.05Q39415.55-20.05 39415.15-19.98 39414.75-19.9 39414.65-19.85L39414.65-19.85 39414.85-21.7Q39416.8-22 39419.05-22.53 39421.3-23.05 39422-23.2L39422-23.2 39422.3-22.6Q39421.8-21.3 39421.4-16.7 39421-12.1 39421-7.75L39421-7.75Q39421-2.85 39425-2.85L39425-2.85Q39426.5-2.85 39427.8-3.58 39429.1-4.3 39431.05-5.7L39431.05-5.7 39431.05-17.3Q39431.05-18.8 39430.5-19.4 39429.95-20 39428.55-20L39428.55-20 39427.35-19.95 39427.55-21.75Q39429.75-22.05 39432.15-22.55 39434.55-23.05 39435.25-23.2L39435.25-23.2 39435.55-22.6Q39435.1-21.45 39434.77-16.35 39434.45-11.25 39434.45-5.25L39434.45-5.25Q39434.45-4.15 39435-3.55 39435.55-2.95 39436.5-2.95L39436.5-2.95Q39437.2-2.95 39437.87-3.23 39438.55-3.5 39438.97-3.8 39439.4-4.1 39439.5-4.2L39439.5-4.2 39440.2-3.4Q39440-3.1 39439.27-2.15 39438.55-1.2 39437.57-0.3 39436.6 0.6 39435.85 0.6L39435.85 0.6Q39431.8 0.6 39431.4-3.45L39431.4-3.45 39431.15-3.55Q39428.75-1.7 39426.82-0.55 39424.9 0.6 39424.2 0.6L39424.2 0.6Q39421 0.6 39419.27-0.9 39417.55-2.4 39417.55-5.2L39417.55-5.2 39417.75-17.35ZM39426.5-27.95L39424.9-30.7Q39426.35-31.75 39426.92-32.45 39427.5-33.15 39427.5-33.85L39427.5-33.85Q39427.5-34.4 39427.02-34.73 39426.55-35.05 39425.75-35.05L39425.75-35.05Q39425.1-35.05 39424.45-34.85 39423.8-34.65 39423.4-34.4 39423-34.15 39422.9-34.1L39422.9-34.1 39422.35-34.95Q39422.5-35.1 39423.05-35.6 39423.6-36.1 39424.45-36.68 39425.3-37.25 39426.15-37.55L39426.15-37.55Q39428.05-37.55 39429.15-36.77 39430.25-36 39430.25-34.6L39430.25-34.6Q39430.25-33.75 39429.45-32.65 39428.65-31.55 39427.3-30.55L39427.3-30.55 39428.35-28.8 39426.5-27.95ZM40421.97 0.6Q40417.92 0.6 40417.52-3.45L40417.52-3.45 40417.32-3.5Q40415.52-1.7 40414.04-0.65 40412.57 0.4 40411.82 0.4L40411.82 0.4Q40409.02 0.4 40407.22-1.35 40405.42-3.1 40405.42-5.8L40405.42-5.8Q40405.42-7.25 40406.14-8.35 40406.87-9.45 40408.07-9.8L40408.07-9.8 40417.57-12.4 40417.62-14.6Q40417.62-17.1 40416.47-18.5 40415.32-19.9 40413.22-19.9L40413.22-19.9Q40411.82-19.9 40410.27-19.25 40408.72-18.6 40407.22-17.4L40407.22-17.4 40406.97-17.55 40406.37-19.7Q40408.72-21.05 40411.09-22.13 40413.47-23.2 40414.52-23.2L40414.52-23.2Q40417.77-23.2 40419.62-21.5 40421.47-19.8 40421.47-16.75L40421.47-16.75Q40421.47-15.65 40421.12-12.25L40421.12-12.25Q40420.57-6.75 40420.57-5.25L40420.57-5.25Q40420.57-4.15 40421.12-3.55 40421.67-2.95 40422.62-2.95L40422.62-2.95Q40423.42-2.95 40424.27-3.33 40425.12-3.7 40425.62-4.2L40425.62-4.2 40426.32-3.4Q40425.57-2.15 40424.39-0.98 40423.22 0.2 40421.97 0.6L40421.97 0.6ZM40412.67-3Q40413.62-3 40414.89-3.68 40416.17-4.35 40417.22-5.4L40417.22-5.4 40417.47-10.5 40410.67-8.45Q40409.22-8 40409.22-6.35L40409.22-6.35Q40409.22-4.9 40410.19-3.95 40411.17-3 40412.67-3L40412.67-3ZM42369.9 0.6L42370.2-1.7Q42372-2.05 42372.8-2.6 42373.6-3.15 42373.85-4.1 42374.1-5.05 42374.1-7.1L42374.1-7.1 42374.1-9.3Q42374.1-10.85 42373.8-12.03 42373.5-13.2 42372.65-14.95L42372.65-14.95 42368.15-24.1Q42366.85-26.75 42366.3-27.68 42365.75-28.6 42364.75-29.15 42363.75-29.7 42361.85-29.85L42361.85-29.85 42361.75-30.05 42362.05-32Q42362.6-31.95 42364.15-31.9 42365.7-31.85 42367.55-31.85L42367.55-31.85Q42369.3-31.85 42371.63-32.02 42373.95-32.2 42374.65-32.25L42374.65-32.25 42374.8-31.9 42374.65-30.15Q42372.4-29.95 42371.63-29.58 42370.85-29.2 42370.85-28.35L42370.85-28.35Q42370.85-27.7 42372.1-24.8 42373.35-21.9 42374.68-19.1 42376-16.3 42376.45-15.45L42376.45-15.45 42376.7-15.45 42382.4-26.05Q42383.2-27.5 42383.2-28.55L42383.2-28.55Q42383.2-29.85 42380.05-30.05L42380.05-30.05 42379.95-30.25 42380.25-32.2Q42380.85-32.15 42382.75-32 42384.65-31.85 42385.8-31.85L42385.8-31.85Q42387-31.85 42388.48-31.93 42389.95-32 42390.4-32.05L42390.4-32.05 42390.6-31.7 42390.3-29.85Q42388.7-29.55 42387.8-29.03 42386.9-28.5 42386.23-27.53 42385.55-26.55 42384.25-24.25L42384.25-24.25Q42383.95-23.65 42383.75-23.35L42383.75-23.35 42378.75-14.55Q42378.1-13.4 42377.93-11.95 42377.75-10.5 42377.65-6.7L42377.65-6.7 42377.65-5.6Q42377.6-3.65 42378.08-2.93 42378.55-2.2 42379.85-2.2L42379.85-2.2Q42380.65-2.2 42381.35-2.25 42382.05-2.3 42382.3-2.35L42382.3-2.35 42382.4-2.15 42381.95 0.15Q42381.25 0.1 42379.38 0.05 42377.5 0 42375.6 0L42375.6 0Q42374.05 0 42372.25 0.25 42370.45 0.5 42369.9 0.6L42369.9 0.6ZM42374.45-35.15L42374.05-35.4 42373.75-36.6Q42376.7-38.15 42379.75-39.85 42382.8-41.55 42383.7-42.05L42383.7-42.05 42384.15-41.75 42384.95-39.35 42384.75-38.85Q42383.9-38.55 42380.83-37.48 42377.75-36.4 42374.45-35.15L42374.45-35.15ZM44331.89 0.2L44332.29-1.95Q44334.79-2.15 44335.74-2.58 44336.69-3 44336.99-4.13 44337.29-5.25 44337.29-8.1L44337.29-8.1 44337.29-29.9Q44333.04-29.75 44331.52-29.43 44329.99-29.1 44329.44-27.98 44328.89-26.85 44328.44-23.6L44328.44-23.6 44326.09-23.4Q44326.69-28.15 44326.84-32.05L44326.84-32.05 44327.29-32.45 44331.44-31.9 44346.94-31.9 44351.19-32.45 44351.64-32.05Q44351.79-27.95 44352.39-23.6L44352.39-23.6 44350.04-23.4Q44349.49-26.7 44348.94-27.85 44348.39-29 44346.99-29.35 44345.59-29.7 44341.59-29.9L44341.59-29.9Q44341.29-26.9 44341.04-19.3 44340.79-11.7 44340.79-5.6L44340.79-5.6Q44340.79-3.75 44341.44-2.98 44342.09-2.2 44343.64-2.2L44343.64-2.2Q44345.14-2.2 44346.39-2.35L44346.39-2.35 44346.54-2.15 44346.09 0.15 44344.44 0.1 44338.74 0Q44335.99 0 44331.89 0.2L44331.89 0.2ZM45319.01-17.35Q45319.01-20.05 45317.16-20.05L45317.16-20.05Q45316.81-20.05 45316.41-19.98 45316.01-19.9 45315.91-19.85L45315.91-19.85 45316.11-21.7Q45318.06-22 45320.31-22.53 45322.56-23.05 45323.26-23.2L45323.26-23.2 45323.56-22.6Q45323.06-21.3 45322.66-16.7 45322.26-12.1 45322.26-7.75L45322.26-7.75Q45322.26-5.25 45323.24-4.05 45324.21-2.85 45326.26-2.85L45326.26-2.85Q45327.76-2.85 45329.06-3.58 45330.36-4.3 45332.31-5.7L45332.31-5.7 45332.31-17.3Q45332.31-18.8 45331.76-19.4 45331.21-20 45329.81-20L45329.81-20 45328.61-19.95 45328.81-21.75 45334.66-22.8Q45336.16-23.05 45336.99-23.63 45337.81-24.2 45337.81-25.25L45337.81-25.25Q45337.81-26.15 45337.39-27.1 45336.96-28.05 45336.21-28.75L45336.21-28.75 45336.31-29.45Q45337.21-30.15 45337.81-30.4L45337.81-30.4Q45338.66-30.75 45339.21-30.75L45339.21-30.75Q45340.36-30.75 45341.06-29.68 45341.76-28.6 45341.76-26.85L45341.76-26.85Q45341.76-24.7 45340.24-23.13 45338.71-21.55 45336.46-21.15L45336.46-21.15Q45336.11-18.9 45335.91-14.53 45335.71-10.15 45335.71-5.25L45335.71-5.25Q45335.71-4.15 45336.26-3.55 45336.81-2.95 45337.76-2.95L45337.76-2.95Q45338.46-2.95 45339.14-3.23 45339.81-3.5 45340.24-3.8 45340.66-4.1 45340.76-4.2L45340.76-4.2 45341.46-3.4Q45341.26-3.1 45340.54-2.15 45339.81-1.2 45338.84-0.3 45337.86 0.6 45337.11 0.6L45337.11 0.6Q45333.06 0.6 45332.66-3.45L45332.66-3.45 45332.41-3.55Q45330.01-1.7 45328.09-0.55 45326.16 0.6 45325.46 0.6L45325.46 0.6Q45322.26 0.6 45320.54-0.9 45318.81-2.4 45318.81-5.2L45318.81-5.2 45319.01-17.35ZM46316.63 0.6Q46313.78 0.6 46311.58-0.8 46309.38-2.2 46308.16-4.73 46306.93-7.25 46306.93-10.5L46306.93-10.5Q46306.93-14 46308.43-16.9 46309.93-19.8 46312.46-21.5 46314.98-23.2 46317.88-23.2L46317.88-23.2Q46319.03-23.2 46319.93-22.98 46320.83-22.75 46322.18-22.25L46322.18-22.25Q46324.03-21.5 46325.28-21.5L46325.28-21.5Q46326.78-21.5 46327.61-22.15 46328.43-22.8 46328.43-23.95L46328.43-23.95Q46328.43-24.85 46328.01-25.8 46327.58-26.75 46326.83-27.45L46326.83-27.45 46326.93-28.15Q46327.83-28.85 46328.43-29.1L46328.43-29.1Q46329.28-29.45 46329.83-29.45L46329.83-29.45Q46330.98-29.45 46331.68-28.38 46332.38-27.3 46332.38-25.55L46332.38-25.55Q46332.38-23.9 46331.48-22.58 46330.58-21.25 46329.06-20.5 46327.53-19.75 46325.78-19.75L46325.78-19.75Q46328.23-16.65 46328.23-12.1L46328.23-12.1Q46328.23-8.6 46326.71-5.68 46325.18-2.75 46322.53-1.07 46319.88 0.6 46316.63 0.6L46316.63 0.6ZM46318.03-1.85Q46320.83-1.85 46322.48-4.13 46324.13-6.4 46324.13-10.3L46324.13-10.3Q46324.13-13.25 46323.23-15.58 46322.33-17.9 46320.71-19.2 46319.08-20.5 46317.03-20.5L46317.03-20.5Q46314.23-20.5 46312.58-18.2 46310.93-15.9 46310.93-11.95L46310.93-11.95Q46310.93-9 46311.83-6.7 46312.73-4.4 46314.33-3.13 46315.93-1.85 46318.03-1.85L46318.03-1.85ZM46318.53-27.95L46316.93-30.7Q46318.38-31.75 46318.96-32.45 46319.53-33.15 46319.53-33.85L46319.53-33.85Q46319.53-34.4 46319.06-34.73 46318.58-35.05 46317.78-35.05L46317.78-35.05Q46317.13-35.05 46316.48-34.85 46315.83-34.65 46315.43-34.4 46315.03-34.15 46314.93-34.1L46314.93-34.1 46314.38-34.95Q46314.53-35.1 46315.08-35.6 46315.63-36.1 46316.48-36.68 46317.33-37.25 46318.18-37.55L46318.18-37.55Q46320.08-37.55 46321.18-36.77 46322.28-36 46322.28-34.6L46322.28-34.6Q46322.28-33.75 46321.48-32.65 46320.68-31.55 46319.33-30.55L46319.33-30.55 46320.38-28.8 46318.53-27.95ZM47310.45-1.45Q47311.95-1.85 47312.6-2.63 47313.25-3.4 47313.25-4.7L47313.25-4.7 47313.45-14.6Q47313.45-17.1 47312.38-18.45 47311.3-19.8 47309.3-19.8L47309.3-19.8Q47307.7-19.8 47306.05-18.98 47304.4-18.15 47303.15-17.2L47303.15-17.2Q47302.7-6.85 47302.7-4.9L47302.7-4.9Q47302.7-3.35 47303.1-2.73 47303.5-2.1 47304.5-2.1L47304.5-2.1Q47305.05-2.1 47305.55-2.15 47306.05-2.2 47306.25-2.2L47306.25-2.2 47306.35-2 47305.9 0.15Q47305.45 0.1 47304.15 0.05 47302.85 0 47301.35 0L47301.35 0Q47300.05 0 47298.48 0.13 47296.9 0.25 47296.4 0.3L47296.4 0.3 47296.65-1.75Q47298.1-2 47298.7-2.65 47299.3-3.3 47299.3-4.7L47299.3-4.7 47299.3-16.9Q47299.3-18.6 47298.75-19.28 47298.2-19.95 47296.85-19.95L47296.85-19.95 47296.3-19.95 47296.15-20.15 47296.3-21.8Q47298.45-22.15 47300.58-22.63 47302.7-23.1 47303.3-23.25L47303.3-23.25 47303.6-22.85Q47303.5-22.55 47303.3-21.58 47303.1-20.6 47303.05-19.55L47303.05-19.55 47303.15-19.4Q47308.85-23.2 47310.5-23.2L47310.5-23.2Q47313.65-23.2 47315.5-21.45 47317.35-19.7 47317.35-16.75L47317.35-16.75Q47317.35-16.25 47317.05-12.15L47317.05-12.15Q47316.65-6.95 47316.65-4.9L47316.65-4.9Q47316.65-3.45 47317.05-2.78 47317.45-2.1 47318.4-2.1L47318.4-2.1Q47318.95-2.1 47319.45-2.15 47319.95-2.2 47320.15-2.2L47320.15-2.2 47320.25-2 47319.85 0.15Q47319.4 0.1 47318.15 0.05 47316.9 0 47315.4 0L47315.4 0Q47314.1 0 47312.43 0.25 47310.75 0.5 47310.25 0.6L47310.25 0.6 47310.45-1.45ZM48308.32-21.15Q48307.37-21 48304.02-20.7L48304.02-20.7 48303.82-20.45Q48305.82-18.25 48305.82-15.35L48305.82-15.35Q48305.82-12.95 48304.5-10.9 48303.17-8.85 48300.92-7.68 48298.67-6.5 48295.97-6.5L48295.97-6.5Q48294.52-6.5 48293.17-6.9L48293.17-6.9Q48292.02-6.25 48291.52-5.7 48291.02-5.15 48291.02-4.6L48291.02-4.6Q48291.02-3.45 48292.57-3 48294.12-2.55 48297.42-2.15L48297.42-2.15Q48300.67-1.75 48302.67-1.33 48304.67-0.9 48306.12 0.2 48307.57 1.3 48307.57 3.25L48307.57 3.25Q48307.57 5.45 48305.8 7.5 48304.02 9.55 48301.15 10.83 48298.27 12.1 48295.22 12.1L48295.22 12.1Q48291.67 12.1 48289.65 10.33 48287.62 8.55 48287.62 5.45L48287.62 5.45Q48288.32 4.55 48289.65 3.35 48290.97 2.15 48292.57 0.95L48292.57 0.95 48292.57 0.65Q48289.97 0.2 48288.57-1.05 48287.17-2.3 48287.12-4.25L48287.12-4.25Q48289.07-6.1 48291.32-7.45L48291.32-7.45 48291.32-7.65Q48289.57-8.65 48288.6-10.33 48287.62-12 48287.62-14.1L48287.62-14.1Q48287.62-16.55 48288.9-18.63 48290.17-20.7 48292.3-21.95 48294.42-23.2 48296.92-23.2L48296.92-23.2Q48298.07-23.2 48299.77-22.9L48299.77-22.9Q48301.02-22.65 48301.82-22.65L48301.82-22.65Q48304.07-22.9 48308.72-24.15L48308.72-24.15 48308.87-23.95 48308.32-21.15ZM48297.12-8.7Q48299.42-8.7 48300.75-10.15 48302.07-11.6 48302.07-14.15L48302.07-14.15Q48302.07-17.05 48300.47-18.85 48298.87-20.65 48296.32-20.65L48296.32-20.65Q48294.02-20.65 48292.7-19.15 48291.37-17.65 48291.37-15.1L48291.37-15.1Q48291.37-12.25 48292.97-10.48 48294.57-8.7 48297.12-8.7L48297.12-8.7ZM48294.72 1.05Q48293.22 2.1 48292.42 3.38 48291.62 4.65 48291.62 5.9L48291.62 5.9Q48291.62 7.6 48293.07 8.63 48294.52 9.65 48296.92 9.65L48296.92 9.65Q48298.82 9.65 48300.55 8.97 48302.27 8.3 48303.32 7.15 48304.37 6 48304.37 4.7L48304.37 4.7Q48304.37 3.7 48303.62 3.1 48302.87 2.5 48300.85 2.05 48298.82 1.6 48294.72 1.05L48294.72 1.05Z" opacity="1" transform="matrix(1,0,0,1,0,0)" fill="#034620" class="slogan-text-1" data-fill-palette-color="secondary" id="text-1"></path></svg></g></svg></g></svg></g></svg></g><g transform="matrix(1,0,0,1,42.53431840220226,0)"><svg viewBox="0 0 159.36272319559544 94.36892760325145" height="94.36892760325145" width="159.36272319559544"><g><svg xmlns="http://www.w3.org/2000/svg" xmlns:xlink="http://www.w3.org/1999/xlink" version="1.1" viewBox="9.433999999999997 9.201682358651409 84.19506412065398 49.85731764134857" overflow="visible" enable-background="new 0 0 99.866 62.228" xml:space="preserve" x="0" y="0" height="94.36892760325145" width="159.36272319559544" class="icon-icon-0" data-fill-palette-color="accent" id="icon-0"><g fill="#93540a" data-fill-palette-color="accent"><g fill="#93540a" data-fill-palette-color="accent"><path d="M90.372 12.505c1.062 1.904 3.583 3.305 3.222 5.721-2.221 2.958-6.082 5.149-7.023 8.936-2.491 0.888-5.156 0.745-7.753 1.039 0.934 3.696-4.148 3.433-5.751 5.668-2.529 2.544-6.58 0.354-9.666 0.452-0.022 1.799 1.498 2.273 2.913 1.573 0.61 2.529 2.01 4.84 3.583 6.873 1.062 0.843-0.437 1.611-1.091 1.995-1.461-1.995-2.665-4.178-3.44-6.526-1.973-0.76-2.349-3.99-4.78-2.914-0.926-0.805-1.573-1.867-2.371-2.792-0.03 0.15-0.061 0.286-0.075 0.421l-0.903-0.128c0.309-2.115-0.459-4.321-1.468-6.203l-0.271 0.361c-2.183 3.749-7.475 0.158-10.84 1.935 2.401 4.261 7.166 5.713 11.924 5.879l0.166 0.851c-1.189 0.332-3.968 3.681-5.292 1.521-0.889-2.063-0.392 1.227-1.604 0.67-2.906 1.468-4.088-1.099-5.947-2.266 0.475 1.656 0.49 3.749 2.198 4.675 1.648 1.859 4.6 0.798 6.361 2.575 1.317 0.338 2.8-0.211 3.628-1.28l0.678 0.113c-0.022 1.317-0.067 3.952-0.091 5.27l-0.699-0.045c1.241-7.385-0.52-2.988-1.687-1.551-1.137 0.196-2.251-0.158-3.365-0.331-0.708 2.379-3.711 0.399-5.502 0.489 1.302 3.952 5.939 5.021 9.651 5.164 0.662-1.039 1.016-2.951 2.318-1.377-0.361 3.304-3.922 2.709-5.676 4.705-0.986 1.776-1.182 4.11-3.245 5.081 0.076-1.596 1.822-4.275-0.286-5.043-2.718-0.211-3.132-3.456-5.488-4.404-1.205-2.522-0.866-5.368-1.174-8.07-1.731 0.903-1.205 3.101-2.289 4.486-2.258 2.296-5.074 4.298-6.09 7.505-0.339 0.046-1.009 0.136-1.34 0.181 1.039-5.344 6.135-8.348 7.701-13.437-3.621 2.055-1.174-4.291-0.903-6.226-2.732 1.754-3.779 5.27-4.682 8.258-0.527 0.022-1.581 0.068-2.108 0.09 1.009-2.484 1.43-5.247 3.003-7.46-1.227-1.084-3.199-0.459-4.261-1.769-1.573-2.1-4.464-0.835-6.677-1.543-1.031-2.394-3.26-3.516-5.533-4.389-0.715-1.822 1.355-2.033 1.588-3.5l0.023-0.489c1.422 0.068 2.898 0 4.185 0.211 0.821-1.25 1.852-2.266 3.117-3.057-0.753-1.34-2.033-2.755-3.666-2.898-1.671-0.196-4.494-1.912-3.816 1.054l-0.045 0.008c-0.738-2.454-4.728-2.665-6.007-4.788 2.552 0.061 4.351 2.341 6.835 2.319 1.234-2.356-0.753-5.525-3.222-5.525l-0.008-0.421c3.342-0.015 6.873 0.903 9.929 1.573 4.441 3.056 8.936 6.06 13.452 9.033 1.355 1.265 3.162 0.06 4.682-0.173 0.007-0.007 0.022-0.007 0.03-0.007-0.452 0.7-0.971 1.355-1.416 2.055 1.769-0.045 0.843 1.408 0.67 2.461 0.903-0.407 2.221-2.304 2.454-0.354 1.98-0.248 4.193 0.384 5.661 1.747-0.15-2.379 2.183-0.098 3.094-1.513-0.323-2.386-0.934-4.735-1.596-7.046-0.271-0.015-0.806-0.045-1.076-0.06-1.107-2.138-3.418-3.064-5.496-4.02-0.745 1.393-0.775 3.305-2.793 3.32-1.859 1.28-0.188-2.198-1.807-1.897-2.311 6.797 1.596 2.221 3.877 2.266-0.384 0.791-1.054 1.408-1.844 1.799-0.806 0.399-1.731 0.564-2.605 0.421C40.682 16.495 43.7 12.182 40.9 9.223c2.161-0.301 3.079 2.657 2.514 4.359 0.806 2.123 2.883-0.286 4.321-0.369 2.228 0.105 4.479-0.203 6.632 0.535 1.476-1.189 2.438-3.35 4.667-3.711-0.233 2.085-2.401 3.124-3.342 4.886-0.949-0.098-1.897-0.279-2.854-0.339 0.73 1.423 2.379 1.762 3.674 2.454 0.564 1.919 0.564 3.877 0.218 5.827 5.902-0.512 10.313-5.089 14.755-8.604 2.612-2.785 6.76-3.003 10.237-3.884C84.554 11.293 87.745 11 90.372 12.505zM91.291 18.196c0.512-4.253-4.359-6.542-8.025-5.751-0.851 1.061-2.725 1.836-2.363 3.44C83.809 18.219 87.76 21.358 91.291 18.196zM88.4 20.71c-2.748 1.212-3.998-0.88-5.601-2.19-1.544 0.73-3.034 1.558-4.472 2.477-1.536-0.226-2.988-1.076-4.539-1.182 0.534-0.008 1.34-0.233 2.559-0.768 0.294-1.618-1.949-1.34-1.61-2.958 0.964-0.052 1.927-0.067 2.898-0.045-0.414 1.242-0.686 2.529-0.61 3.839 1.37-0.158 2.62-0.858 3.704-1.694 0.602-1.536-1.137-1.83-2.123-2.394 0.678-1.144 3.982-3.455 2.446-3.959-2.966 0.459-5.759 1.528-8.446 2.853 1.212 1.814-0.865 5.111 1.159 5.126-0.368-0.022-0.737 0-1.121 0.075-1.874 1.822 1.031 4.999 2.718 2.793 1.468-1.506 3.161 0.512 4.734 0.752 4.118-2.785 3.229 2.447 5.774 2.386C85.69 23.594 88.106 22.713 88.4 20.71zM82.912 27.26c1.626-1.091 1.317-4.946-2.612-2.514-1.445-0.158-2.574-1.174-3.854-1.588-0.941 0.768-2.575 1.076-2.477 2.574C77.003 25.92 79.909 26.876 82.912 27.26zM77.809 29.525c-0.377-1.648-2.266-1.739-3.553-1.136-1.936 0.918-3.923 1.935-6.219 1.332 0.316 1.468 0.655 2.928 0.881 4.419C72.133 33.244 74.413 30.263 77.809 29.525zM74.12 26.59c-0.535 0.068-1.611 0.203-2.146 0.263-2.101 0.459-4.186 0.956-6.278 1.423 0.226 0.271 0.678 0.813 0.903 1.084C69.182 28.743 72.682 29.277 74.12 26.59zM69.001 24.806c5.984 3.365 3.38-3.696 0.512-1.234 0.873-1.438 2.176-2.74 2.312-4.502-0.964-0.075-1.905-0.015-2.831 0.188C67.699 20.816 65.719 24.497 69.001 24.806zM70.251 18.37c1.633 0.708 3.116-2.115 0.948-2.13C70.597 16.608 68.828 17.978 70.251 18.37zM64.236 33.372c1.121-0.015 3.786 0.361 3.553-1.332-1.34-1.009-2.432-2.771-4.351-2.477C65.146 30.331 64.356 31.935 64.236 33.372zM67.962 18.979c-0.315 0.083-0.934 0.256-1.242 0.339-1.783 1.25-3.417 2.643-4.9 4.186 0.512 0.278 0.964 0.459 1.362 0.564-0.519 0.09-1.106 0.256-1.73 0.497-0.769 0.226-1.378 0.64-1.837 1.242 2.146 0.06 4.953-1.506 6.12 0.858 0.346-1.536-0.083-2.356-1.031-2.597C66.449 23.458 66.69 20.53 67.962 18.979zM63.573 26.62c-1.046-0.038-2.093-0.03-3.139 0.007 0.128 1.528 0.564 2.996 0.828 4.501-1.069-1.513-1.904-3.29-3.862-3.801 0.279 2.318 1.92 4.155 3.817 5.375 0.007-0.391 0.029-1.182 0.045-1.573 0.504 0.896 1.121 1.687 2.28 1.513C62.828 30.655 60.495 27.907 63.573 26.62zM50.393 53.675c-0.279-0.761 0.812-3.177-0.264-2.688-1.25 0.836-2.627 0.956-4.05 0.564C46.945 53.125 48.849 53.2 50.393 53.675zM45.356 33.387c-0.241 2.379 2.236 2.477 3.952 2.213C48.27 34.486 46.689 34.057 45.356 33.387zM40.727 32.574c-0.151-1.415 1.679-4.697 0.399-4.946-1.702 0.384-3.531 0.58-4.615 2.13C35.713 32.544 37.128 34.103 40.727 32.574zM41.743 26.417c-0.956-1.498-2.868-1.468-4.329-2.198 0.888-1.814-1.521-1.513-2.65-2.025 0.497 2.055 3.245 2.597 3.328 4.893C39.304 26.838 40.523 26.62 41.743 26.417zM39.485 22.096c-1.46-1.867-3.802-3.259-6.105-3.847C33.876 21.215 36.88 22.028 39.485 22.096zM35.646 25.069c-0.963-0.023-1.919 0.022-2.868 0.135-0.971 1.099-1.332 3.162-3.169 2.906-1.807-0.075-2.778 1.694-3.832 2.883 1.927 0.248 4.065-0.09 5.578 1.31 1.814-1.189 3.636-2.454 5.141-4.035-0.609-0.075-1.822-0.218-2.431-0.293C34.208 26.831 35.074 26.018 35.646 25.069zM33.372 23.601c1.581-3.229-2.16-6.865-5.359-5.269-0.143 1.942 2.868 1.686 2.409 3.749-1.543-1.648-2.951-1.362-3.915 0.647C28.795 22.954 31.054 23.624 33.372 23.601zM28.073 14.493c-0.113 2.484 2.552 3.576 4.675 3.026C31.084 16.653 29.872 15.004 28.073 14.493zM27.516 27.538c0.783-1.596 4.268 0.038 3.545-2.296-2.665-0.331-5.239-1.536-7.979-0.595-1.295 0.399-3.704 0.58-3.207 2.507 2.349-0.249 3.259 2.394 5.066 2.996C25.588 29.496 26.868 28.186 27.516 27.538zM27.35 14.568c0.52-3.244-4.449-0.783-6.06-3.019C20.364 14.944 25.431 14.771 27.35 14.568zM28.073 17.624c-0.361-1.505-1.039-2.913-2.853-2.25C23.021 17.172 26.733 17.436 28.073 17.624z" fill="#93540a" data-fill-palette-color="accent"></path><path d="M63.731 49.64c2.123 1.024 3.787 3.146 3.538 5.601-2.024 0.301-2.597-1.521-1.701-3.019-0.911 0.144-2.018 0.813-2.462-0.414-7.686 2.206 0.099-11.382-6.338-10.155l-0.678-0.113c0.444-0.58 0.7-1.31 0.625-2.138 0.858-3.177 0.692-3.937 0.03-3.756l-0.166-0.851c0.347-0.64 0.55-1.302 0.655-1.972l0.903 0.128c-0.414 3.516 4.75 3.132 5.307 6.481C62.331 42.759 63.167 46.267 63.731 49.64z" fill="#93540a" data-fill-palette-color="accent"></path><path d="M19.958 23.248l-0.023 0.489c-3.485 2.093-5.525-1.799-8.16-3.35-0.361-2.529-1.287-4.916-2.341-7.227 2.183-2.258 4.961-2.996 7.896-3.011l0.008 0.421c-0.572 0-1.175 0.173-1.769 0.564-1.303 0.512-2.605 1.016-3.967 1.363-0.166 3.139 0.143 6.985 3.402 8.408C16.059 22.773 17.956 23.157 19.958 23.248z" fill="#93540a" data-fill-palette-color="accent"></path><path d="M19.777 18.558c0.113 0.512 0.338 1.167 0.692 1.995-6.888 1.25-3.041-1.34-0.632-0.828 0.038-0.437 0-0.821-0.105-1.159L19.777 18.558z" fill="#93540a" data-fill-palette-color="accent"></path></g></g></svg></g></svg></g><g></g></svg></g></svg></g></svg></g><g><path d="M100.462 49.642A122.216 122.216 0 0 1 295.058 49.642L292.587 49.642A119.745 119.745 0 0 0 102.933 49.642L100.462 49.642M100.462 197.558A122.216 122.216 0 0 0 295.058 197.558L292.587 197.558A119.745 119.745 0 0 1 102.933 197.558L100.462 197.558" fill="#93540a" stroke="transparent" data-fill-palette-color="tertiary"></path></g></svg></g><defs></defs></svg><rect width="395.52" height="247.2" fill="none" stroke="none" visibility="hidden"></rect></g></svg></g></svg>